<?xml version="1.0" encoding="UTF-8" standalone="no"?>
<!-- Created with Inkscape (http://www.inkscape.org/) -->

<svg
   version="1.1"
   id="svg1"
   width="468.53333"
   height="110.34667"
   viewBox="0 0 468.53333 110.34667"
   sodipodi:docname="SMTA print logo (hi res vector image).eps"
   xmlns:inkscape="http://www.inkscape.org/namespaces/inkscape"
   xmlns:sodipodi="http://sodipodi.sourceforge.net/DTD/sodipodi-0.dtd"
   xmlns="http://www.w3.org/2000/svg"
   xmlns:svg="http://www.w3.org/2000/svg">
  <defs
     id="defs1" />
  <sodipodi:namedview
     id="namedview1"
     pagecolor="#ffffff"
     bordercolor="#000000"
     borderopacity="0.25"
     inkscape:showpageshadow="2"
     inkscape:pageopacity="0.0"
     inkscape:pagecheckerboard="0"
     inkscape:deskcolor="#d1d1d1">
    <inkscape:page
       x="0"
       y="0"
       inkscape:label="1"
       id="page1"
       width="468.53333"
       height="110.34667"
       margin="0"
       bleed="0" />
  </sodipodi:namedview>
  <g
     id="g1"
     inkscape:groupmode="layer"
     inkscape:label="1">
    <path
       id="path1"
       d="m 995.117,400.414 c 6.453,6.453 6.453,17.008 0,23.461 L 597.023,821.973 c -6.453,6.449 -17.007,6.449 -23.46,0 L 175.465,423.875 c -6.449,-6.453 -6.449,-17.008 0,-23.461 L 573.563,2.31641 c 6.453,-6.44922 17.007,-6.44922 23.457,0 L 995.117,400.414"
       style="fill:#1f4fa2;fill-opacity:1;fill-rule:nonzero;stroke:none"
       transform="matrix(0.13333333,0,0,-0.13333333,0,110.34667)" />
    <path
       id="path2"
       d="m 573.699,250.719 c -5.367,-5.367 -5.367,-14.071 0,-19.442 5.367,-5.367 14.071,-5.367 19.438,0.004 5.371,5.367 5.371,14.071 0,19.438 -5.367,5.371 -14.071,5.371 -19.438,0"
       style="fill:#ffffff;fill-opacity:1;fill-rule:nonzero;stroke:none"
       transform="matrix(0.13333333,0,0,-0.13333333,0,110.34667)" />
    <path
       id="path3"
       d="m 602.488,279.508 c -5.367,-5.367 -5.367,-14.07 0,-19.442 5.371,-5.363 14.075,-5.363 19.442,0 5.367,5.372 5.367,14.075 0,19.442 -5.367,5.371 -14.071,5.371 -19.442,0"
       style="fill:#ffffff;fill-opacity:1;fill-rule:nonzero;stroke:none"
       transform="matrix(0.13333333,0,0,-0.13333333,0,110.34667)" />
    <path
       id="path4"
       d="m 573.563,308.434 c -5.368,-5.368 -5.368,-14.071 0,-19.442 5.371,-5.367 14.074,-5.367 19.441,0 5.371,5.371 5.371,14.074 0,19.442 -5.367,5.371 -14.07,5.371 -19.441,0"
       style="fill:#ffffff;fill-opacity:1;fill-rule:nonzero;stroke:none"
       transform="matrix(0.13333333,0,0,-0.13333333,0,110.34667)" />
    <path
       id="path5"
       d="m 631.277,308.301 c -5.367,-5.371 -5.367,-14.074 0,-19.442 5.371,-5.367 14.075,-5.367 19.442,0 5.367,5.368 5.367,14.071 0,19.442 -5.367,5.367 -14.071,5.367 -19.442,0"
       style="fill:#ffffff;fill-opacity:1;fill-rule:nonzero;stroke:none"
       transform="matrix(0.13333333,0,0,-0.13333333,0,110.34667)" />
    <path
       id="path6"
       d="m 602.355,337.227 c -5.367,-5.372 -5.367,-14.075 0,-19.442 5.368,-5.371 14.071,-5.371 19.438,0 5.367,5.367 5.367,14.07 0,19.442 -5.367,5.367 -14.07,5.367 -19.438,0"
       style="fill:#ffffff;fill-opacity:1;fill-rule:nonzero;stroke:none"
       transform="matrix(0.13333333,0,0,-0.13333333,0,110.34667)" />
    <path
       id="path7"
       d="m 660.07,337.09 c -5.367,-5.367 -5.367,-14.07 0,-19.442 5.368,-5.367 14.071,-5.367 19.438,0 5.371,5.372 5.371,14.075 0,19.442 -5.367,5.367 -14.07,5.367 -19.438,0"
       style="fill:#ffffff;fill-opacity:1;fill-rule:nonzero;stroke:none"
       transform="matrix(0.13333333,0,0,-0.13333333,0,110.34667)" />
    <path
       id="path8"
       d="m 631.145,366.016 c -5.368,-5.368 -5.368,-14.075 0,-19.442 5.367,-5.367 14.07,-5.367 19.441,0 5.367,5.367 5.367,14.074 0,19.442 -5.371,5.367 -14.074,5.367 -19.441,0"
       style="fill:#ffffff;fill-opacity:1;fill-rule:nonzero;stroke:none"
       transform="matrix(0.13333333,0,0,-0.13333333,0,110.34667)" />
    <path
       id="path9"
       d="m 688.859,365.879 c -5.367,-5.367 -5.367,-14.07 0,-19.441 5.368,-5.368 14.075,-5.368 19.442,0 5.367,5.371 5.367,14.074 0,19.441 -5.367,5.371 -14.074,5.371 -19.442,0"
       style="fill:#ffffff;fill-opacity:1;fill-rule:nonzero;stroke:none"
       transform="matrix(0.13333333,0,0,-0.13333333,0,110.34667)" />
    <path
       id="path10"
       d="m 659.934,394.805 c -5.368,-5.367 -5.368,-14.075 0,-19.442 5.367,-5.367 14.074,-5.367 19.441,0 5.367,5.367 5.367,14.075 0,19.442 -5.367,5.367 -14.074,5.367 -19.441,0"
       style="fill:#ffffff;fill-opacity:1;fill-rule:nonzero;stroke:none"
       transform="matrix(0.13333333,0,0,-0.13333333,0,110.34667)" />
    <path
       id="path11"
       d="m 717.648,394.672 c -5.367,-5.371 -5.367,-14.074 0,-19.442 5.372,-5.371 14.071,-5.371 19.442,0 5.371,5.368 5.371,14.071 0,19.442 -5.371,5.367 -14.07,5.367 -19.442,0"
       style="fill:#ffffff;fill-opacity:1;fill-rule:nonzero;stroke:none"
       transform="matrix(0.13333333,0,0,-0.13333333,0,110.34667)" />
    <path
       id="path12"
       d="m 688.727,423.594 c -5.372,-5.367 -5.372,-14.071 0,-19.442 5.367,-5.367 14.07,-5.367 19.437,0 5.367,5.371 5.367,14.075 0,19.442 -5.367,5.367 -14.07,5.367 -19.437,0"
       style="fill:#ffffff;fill-opacity:1;fill-rule:nonzero;stroke:none"
       transform="matrix(0.13333333,0,0,-0.13333333,0,110.34667)" />
    <path
       id="path13"
       d="m 659.801,452.52 c -5.371,-5.368 -5.371,-14.071 0,-19.438 5.367,-5.371 14.074,-5.371 19.437,0 5.371,5.367 5.371,14.07 0,19.438 -5.363,5.367 -14.07,5.367 -19.437,0"
       style="fill:#ffffff;fill-opacity:1;fill-rule:nonzero;stroke:none"
       transform="matrix(0.13333333,0,0,-0.13333333,0,110.34667)" />
    <path
       id="path14"
       d="m 630.875,481.445 c -5.367,-5.367 -5.367,-14.074 0,-19.441 5.367,-5.367 14.074,-5.367 19.441,0 5.368,5.367 5.368,14.074 0,19.441 -5.367,5.368 -14.074,5.368 -19.441,0"
       style="fill:#ffffff;fill-opacity:1;fill-rule:nonzero;stroke:none"
       transform="matrix(0.13333333,0,0,-0.13333333,0,110.34667)" />
    <path
       id="path15"
       d="m 601.949,510.367 c -5.367,-5.367 -5.367,-14.07 0,-19.437 5.367,-5.367 14.074,-5.367 19.442,0 5.367,5.367 5.367,14.07 0,19.437 -5.368,5.367 -14.075,5.367 -19.442,0"
       style="fill:#ffffff;fill-opacity:1;fill-rule:nonzero;stroke:none"
       transform="matrix(0.13333333,0,0,-0.13333333,0,110.34667)" />
    <path
       id="path16"
       d="m 573.023,539.293 c -5.367,-5.367 -5.367,-14.07 0,-19.441 5.372,-5.368 14.075,-5.368 19.442,0 5.367,5.371 5.367,14.074 0,19.441 -5.367,5.371 -14.07,5.371 -19.442,0"
       style="fill:#ffffff;fill-opacity:1;fill-rule:nonzero;stroke:none"
       transform="matrix(0.13333333,0,0,-0.13333333,0,110.34667)" />
    <path
       id="path17"
       d="m 746.441,423.461 c -5.371,-5.367 -5.371,-14.074 0,-19.441 5.368,-5.368 14.071,-5.368 19.438,0 5.367,5.367 5.367,14.074 0,19.441 -5.367,5.367 -14.07,5.367 -19.438,0"
       style="fill:#ffffff;fill-opacity:1;fill-rule:nonzero;stroke:none"
       transform="matrix(0.13333333,0,0,-0.13333333,0,110.34667)" />
    <path
       id="path18"
       d="m 717.516,452.387 c -5.371,-5.371 -5.371,-14.074 0,-19.442 5.367,-5.371 14.074,-5.371 19.437,0 5.371,5.368 5.371,14.071 0,19.442 -5.363,5.367 -14.07,5.367 -19.437,0"
       style="fill:#ffffff;fill-opacity:1;fill-rule:nonzero;stroke:none"
       transform="matrix(0.13333333,0,0,-0.13333333,0,110.34667)" />
    <path
       id="path19"
       d="m 688.59,481.309 c -5.367,-5.368 -5.367,-14.071 0,-19.438 5.367,-5.371 14.074,-5.371 19.441,0 5.367,5.367 5.367,14.07 0,19.438 -5.371,5.367 -14.074,5.367 -19.441,0"
       style="fill:#ffffff;fill-opacity:1;fill-rule:nonzero;stroke:none"
       transform="matrix(0.13333333,0,0,-0.13333333,0,110.34667)" />
    <path
       id="path20"
       d="m 659.664,510.234 c -5.367,-5.367 -5.367,-14.07 0,-19.441 5.367,-5.367 14.074,-5.367 19.441,0 5.368,5.371 5.368,14.074 0,19.441 -5.367,5.368 -14.074,5.368 -19.441,0"
       style="fill:#ffffff;fill-opacity:1;fill-rule:nonzero;stroke:none"
       transform="matrix(0.13333333,0,0,-0.13333333,0,110.34667)" />
    <path
       id="path21"
       d="m 630.742,539.16 c -5.371,-5.367 -5.371,-14.074 0,-19.441 5.367,-5.367 14.071,-5.367 19.438,0 5.371,5.367 5.371,14.074 0,19.441 -5.367,5.367 -14.071,5.367 -19.438,0"
       style="fill:#ffffff;fill-opacity:1;fill-rule:nonzero;stroke:none"
       transform="matrix(0.13333333,0,0,-0.13333333,0,110.34667)" />
    <path
       id="path22"
       d="m 601.816,568.086 c -5.371,-5.371 -5.371,-14.074 0,-19.441 5.368,-5.372 14.071,-5.372 19.442,0 5.367,5.367 5.367,14.07 0,19.441 -5.371,5.367 -14.074,5.367 -19.442,0"
       style="fill:#ffffff;fill-opacity:1;fill-rule:nonzero;stroke:none"
       transform="matrix(0.13333333,0,0,-0.13333333,0,110.34667)" />
    <path
       id="path23"
       d="m 572.891,597.008 c -5.368,-5.367 -5.368,-14.07 0,-19.442 5.367,-5.367 14.07,-5.367 19.441,0 5.367,5.372 5.367,14.075 0,19.442 -5.371,5.371 -14.074,5.371 -19.441,0"
       style="fill:#ffffff;fill-opacity:1;fill-rule:nonzero;stroke:none"
       transform="matrix(0.13333333,0,0,-0.13333333,0,110.34667)" />
    <path
       id="path24"
       d="m 775.23,452.25 c -5.371,-5.367 -5.371,-14.074 0,-19.441 5.368,-5.368 14.071,-5.368 19.442,0 5.367,5.367 5.367,14.074 0,19.441 -5.371,5.371 -14.074,5.371 -19.442,0"
       style="fill:#ffffff;fill-opacity:1;fill-rule:nonzero;stroke:none"
       transform="matrix(0.13333333,0,0,-0.13333333,0,110.34667)" />
    <path
       id="path25"
       d="m 746.305,481.176 c -5.367,-5.367 -5.367,-14.074 0,-19.442 5.367,-5.367 14.07,-5.367 19.437,0 5.371,5.368 5.371,14.075 0,19.442 -5.367,5.367 -14.07,5.367 -19.437,0"
       style="fill:#ffffff;fill-opacity:1;fill-rule:nonzero;stroke:none"
       transform="matrix(0.13333333,0,0,-0.13333333,0,110.34667)" />
    <path
       id="path26"
       d="m 717.383,510.098 c -5.371,-5.368 -5.371,-14.071 0,-19.438 5.367,-5.367 14.07,-5.367 19.437,0 5.368,5.367 5.368,14.07 0,19.438 -5.367,5.371 -14.07,5.371 -19.437,0"
       style="fill:#ffffff;fill-opacity:1;fill-rule:nonzero;stroke:none"
       transform="matrix(0.13333333,0,0,-0.13333333,0,110.34667)" />
    <path
       id="path27"
       d="m 688.453,539.023 c -5.367,-5.367 -5.363,-14.07 0,-19.437 5.367,-5.371 14.074,-5.371 19.442,0 5.371,5.367 5.367,14.07 0,19.437 -5.368,5.368 -14.075,5.368 -19.442,0"
       style="fill:#ffffff;fill-opacity:1;fill-rule:nonzero;stroke:none"
       transform="matrix(0.13333333,0,0,-0.13333333,0,110.34667)" />
    <path
       id="path28"
       d="m 659.527,567.949 c -5.367,-5.367 -5.367,-14.07 0,-19.441 5.371,-5.367 14.078,-5.367 19.446,0 5.367,5.371 5.367,14.074 0,19.441 -5.368,5.371 -14.075,5.371 -19.446,0"
       style="fill:#ffffff;fill-opacity:1;fill-rule:nonzero;stroke:none"
       transform="matrix(0.13333333,0,0,-0.13333333,0,110.34667)" />
    <path
       id="path29"
       d="m 630.605,596.875 c -5.367,-5.367 -5.367,-14.074 0,-19.441 5.368,-5.371 14.075,-5.371 19.442,0 5.367,5.367 5.367,14.074 0,19.441 -5.367,5.367 -14.074,5.367 -19.442,0"
       style="fill:#ffffff;fill-opacity:1;fill-rule:nonzero;stroke:none"
       transform="matrix(0.13333333,0,0,-0.13333333,0,110.34667)" />
    <path
       id="path30"
       d="m 601.68,625.797 c -5.367,-5.367 -5.367,-14.07 0,-19.438 5.371,-5.371 14.074,-5.371 19.441,0 5.367,5.368 5.367,14.071 0,19.438 -5.367,5.371 -14.07,5.371 -19.441,0"
       style="fill:#ffffff;fill-opacity:1;fill-rule:nonzero;stroke:none"
       transform="matrix(0.13333333,0,0,-0.13333333,0,110.34667)" />
    <path
       id="path31"
       d="m 573.426,654.055 c -5.367,-5.367 -5.367,-14.075 0,-19.442 5.367,-5.367 14.07,-5.367 19.437,0 5.371,5.367 5.371,14.075 0,19.442 -5.367,5.367 -14.07,5.367 -19.437,0"
       style="fill:#ffffff;fill-opacity:1;fill-rule:nonzero;stroke:none"
       transform="matrix(0.13333333,0,0,-0.13333333,0,110.34667)" />
    <path
       id="path32"
       d="m 258.867,565.551 c -5.367,-5.367 -5.367,-14.071 0,-19.442 5.371,-5.367 14.074,-5.367 19.442,0 5.371,5.371 5.371,14.075 0,19.442 -5.368,5.367 -14.071,5.367 -19.442,0"
       style="fill:#000000;fill-opacity:1;fill-rule:nonzero;stroke:none"
       transform="matrix(0.13333333,0,0,-0.13333333,0,110.34667)" />
    <path
       id="path33"
       d="m 287.656,594.34 c -5.367,-5.367 -5.367,-14.07 0,-19.438 5.371,-5.371 14.074,-5.371 19.442,0 5.367,5.368 5.367,14.071 0,19.438 -5.368,5.371 -14.071,5.371 -19.442,0"
       style="fill:#000000;fill-opacity:1;fill-rule:nonzero;stroke:none"
       transform="matrix(0.13333333,0,0,-0.13333333,0,110.34667)" />
    <path
       id="path34"
       d="m 316.449,623.133 c -5.367,-5.371 -5.367,-14.074 0,-19.442 5.367,-5.371 14.071,-5.371 19.442,0 5.367,5.368 5.367,14.071 0,19.442 -5.371,5.367 -14.075,5.367 -19.442,0"
       style="fill:#000000;fill-opacity:1;fill-rule:nonzero;stroke:none"
       transform="matrix(0.13333333,0,0,-0.13333333,0,110.34667)" />
    <path
       id="path35"
       d="m 345.238,651.922 c -5.367,-5.367 -5.367,-14.074 0,-19.442 5.367,-5.367 14.071,-5.367 19.442,0 5.367,5.368 5.367,14.075 0,19.442 -5.371,5.367 -14.075,5.367 -19.442,0"
       style="fill:#000000;fill-opacity:1;fill-rule:nonzero;stroke:none"
       transform="matrix(0.13333333,0,0,-0.13333333,0,110.34667)" />
    <path
       id="path36"
       d="m 374.027,680.711 c -5.367,-5.367 -5.367,-14.074 0,-19.441 5.371,-5.368 14.075,-5.368 19.442,0 5.367,5.367 5.367,14.074 0,19.441 -5.367,5.367 -14.071,5.367 -19.442,0"
       style="fill:#000000;fill-opacity:1;fill-rule:nonzero;stroke:none"
       transform="matrix(0.13333333,0,0,-0.13333333,0,110.34667)" />
    <path
       id="path37"
       d="m 402.816,709.5 c -5.367,-5.367 -5.367,-14.07 0,-19.437 5.372,-5.372 14.075,-5.372 19.442,0 5.371,5.367 5.371,14.07 0,19.437 -5.367,5.371 -14.07,5.371 -19.442,0"
       style="fill:#000000;fill-opacity:1;fill-rule:nonzero;stroke:none"
       transform="matrix(0.13333333,0,0,-0.13333333,0,110.34667)" />
    <path
       id="path38"
       d="m 431.609,738.293 c -5.371,-5.371 -5.371,-14.074 0,-19.441 5.368,-5.372 14.071,-5.372 19.438,0 5.371,5.367 5.371,14.07 0,19.441 -5.367,5.367 -14.07,5.367 -19.438,0"
       style="fill:#000000;fill-opacity:1;fill-rule:nonzero;stroke:none"
       transform="matrix(0.13333333,0,0,-0.13333333,0,110.34667)" />
    <path
       id="path39"
       d="m 460.398,767.082 c -5.367,-5.367 -5.367,-14.074 0,-19.441 5.368,-5.368 14.075,-5.368 19.442,0 5.367,5.367 5.367,14.074 0,19.441 -5.367,5.367 -14.074,5.367 -19.442,0"
       style="fill:#000000;fill-opacity:1;fill-rule:nonzero;stroke:none"
       transform="matrix(0.13333333,0,0,-0.13333333,0,110.34667)" />
    <path
       id="path40"
       d="m 230.609,593.809 c -5.367,-5.371 -5.367,-14.075 0,-19.442 5.371,-5.367 14.075,-5.367 19.442,0 5.367,5.367 5.367,14.071 0,19.442 -5.367,5.367 -14.071,5.367 -19.442,0"
       style="fill:#000000;fill-opacity:1;fill-rule:nonzero;stroke:none"
       transform="matrix(0.13333333,0,0,-0.13333333,0,110.34667)" />
    <path
       id="path41"
       d="m 259.402,622.598 c -5.367,-5.371 -5.367,-14.075 0,-19.438 5.368,-5.371 14.071,-5.371 19.442,0 5.367,5.363 5.367,14.067 0,19.438 -5.371,5.367 -14.074,5.367 -19.442,0"
       style="fill:#000000;fill-opacity:1;fill-rule:nonzero;stroke:none"
       transform="matrix(0.13333333,0,0,-0.13333333,0,110.34667)" />
    <path
       id="path42"
       d="m 288.191,651.387 c -5.371,-5.367 -5.371,-14.071 0,-19.442 5.368,-5.367 14.075,-5.367 19.442,0 5.367,5.371 5.367,14.075 0,19.442 -5.367,5.371 -14.074,5.371 -19.442,0"
       style="fill:#000000;fill-opacity:1;fill-rule:nonzero;stroke:none"
       transform="matrix(0.13333333,0,0,-0.13333333,0,110.34667)" />
    <path
       id="path43"
       d="m 316.98,680.18 c -5.367,-5.371 -5.367,-14.075 0,-19.446 5.372,-5.367 14.075,-5.367 19.446,0 5.363,5.371 5.363,14.075 0,19.446 -5.371,5.367 -14.074,5.367 -19.446,0"
       style="fill:#000000;fill-opacity:1;fill-rule:nonzero;stroke:none"
       transform="matrix(0.13333333,0,0,-0.13333333,0,110.34667)" />
    <path
       id="path44"
       d="m 345.77,708.969 c -5.368,-5.371 -5.368,-14.074 0,-19.442 5.371,-5.367 14.074,-5.367 19.441,0 5.367,5.368 5.367,14.071 0,19.442 -5.367,5.367 -14.07,5.367 -19.441,0"
       style="fill:#000000;fill-opacity:1;fill-rule:nonzero;stroke:none"
       transform="matrix(0.13333333,0,0,-0.13333333,0,110.34667)" />
    <path
       id="path45"
       d="m 374.563,737.758 c -5.368,-5.367 -5.368,-14.074 0,-19.442 5.367,-5.367 14.074,-5.367 19.437,0 5.371,5.368 5.371,14.075 0,19.442 -5.363,5.367 -14.07,5.371 -19.437,0"
       style="fill:#000000;fill-opacity:1;fill-rule:nonzero;stroke:none"
       transform="matrix(0.13333333,0,0,-0.13333333,0,110.34667)" />
    <path
       id="path46"
       d="m 403.352,766.547 c -5.368,-5.367 -5.368,-14.074 0,-19.442 5.367,-5.367 14.07,-5.367 19.437,0 5.371,5.368 5.371,14.075 0,19.442 -5.367,5.367 -14.066,5.367 -19.437,0"
       style="fill:#000000;fill-opacity:1;fill-rule:nonzero;stroke:none"
       transform="matrix(0.13333333,0,0,-0.13333333,0,110.34667)" />
    <path
       id="path47"
       d="m 432.141,795.336 c -5.368,-5.367 -5.368,-14.07 0,-19.438 5.371,-5.371 14.074,-5.371 19.441,0 5.367,5.368 5.367,14.071 0,19.438 -5.367,5.371 -14.07,5.371 -19.441,0"
       style="fill:#000000;fill-opacity:1;fill-rule:nonzero;stroke:none"
       transform="matrix(0.13333333,0,0,-0.13333333,0,110.34667)" />
    <path
       id="path48"
       d="m 202.355,622.063 c -5.367,-5.368 -5.367,-14.071 0,-19.438 5.368,-5.371 14.071,-5.371 19.442,0 5.367,5.367 5.367,14.07 0,19.438 -5.371,5.371 -14.074,5.371 -19.442,0"
       style="fill:#000000;fill-opacity:1;fill-rule:nonzero;stroke:none"
       transform="matrix(0.13333333,0,0,-0.13333333,0,110.34667)" />
    <path
       id="path49"
       d="m 231.145,650.855 c -5.372,-5.371 -5.372,-14.074 0,-19.441 5.371,-5.367 14.074,-5.371 19.441,0 5.367,5.367 5.367,14.074 0,19.441 -5.367,5.368 -14.07,5.368 -19.441,0"
       style="fill:#000000;fill-opacity:1;fill-rule:nonzero;stroke:none"
       transform="matrix(0.13333333,0,0,-0.13333333,0,110.34667)" />
    <path
       id="path50"
       d="m 259.934,679.645 c -5.368,-5.368 -5.368,-14.075 0,-19.442 5.371,-5.367 14.074,-5.367 19.441,0 5.367,5.367 5.367,14.074 0,19.442 -5.367,5.367 -14.07,5.367 -19.441,0"
       style="fill:#000000;fill-opacity:1;fill-rule:nonzero;stroke:none"
       transform="matrix(0.13333333,0,0,-0.13333333,0,110.34667)" />
    <path
       id="path51"
       d="m 288.727,708.434 c -5.368,-5.368 -5.368,-14.071 0,-19.442 5.367,-5.367 14.07,-5.367 19.437,0 5.367,5.371 5.367,14.074 0,19.442 -5.367,5.367 -14.07,5.367 -19.437,0"
       style="fill:#000000;fill-opacity:1;fill-rule:nonzero;stroke:none"
       transform="matrix(0.13333333,0,0,-0.13333333,0,110.34667)" />
    <path
       id="path52"
       d="m 317.516,737.223 c -5.368,-5.368 -5.368,-14.071 0,-19.438 5.367,-5.371 14.074,-5.371 19.437,0 5.371,5.367 5.371,14.07 0,19.438 -5.363,5.371 -14.07,5.371 -19.437,0"
       style="fill:#000000;fill-opacity:1;fill-rule:nonzero;stroke:none"
       transform="matrix(0.13333333,0,0,-0.13333333,0,110.34667)" />
    <path
       id="path53"
       d="m 346.305,766.012 c -5.367,-5.364 -5.367,-14.071 0,-19.438 5.367,-5.367 14.074,-5.367 19.437,0 5.371,5.367 5.371,14.074 0,19.438 -5.363,5.371 -14.07,5.371 -19.437,0"
       style="fill:#000000;fill-opacity:1;fill-rule:nonzero;stroke:none"
       transform="matrix(0.13333333,0,0,-0.13333333,0,110.34667)" />
    <path
       id="path54"
       d="m 375.098,794.805 c -5.371,-5.367 -5.371,-14.075 0,-19.442 5.367,-5.367 14.07,-5.367 19.437,0 5.367,5.367 5.367,14.075 0,19.442 -5.367,5.367 -14.07,5.367 -19.437,0"
       style="fill:#000000;fill-opacity:1;fill-rule:nonzero;stroke:none"
       transform="matrix(0.13333333,0,0,-0.13333333,0,110.34667)" />
    <path
       id="path55"
       d="m 403.883,823.594 c -5.363,-5.367 -5.363,-14.074 0,-19.442 5.371,-5.367 14.078,-5.367 19.441,0 5.371,5.368 5.371,14.075 0,19.442 -5.363,5.367 -14.07,5.367 -19.441,0"
       style="fill:#000000;fill-opacity:1;fill-rule:nonzero;stroke:none"
       transform="matrix(0.13333333,0,0,-0.13333333,0,110.34667)" />
    <path
       id="path56"
       d="m 805.098,424.266 c -5.371,-5.368 -5.371,-14.071 0,-19.438 5.367,-5.367 14.07,-5.367 19.441,0 5.367,5.367 5.367,14.07 0,19.438 -5.371,5.371 -14.074,5.371 -19.441,0"
       style="fill:#ffffff;fill-opacity:1;fill-rule:nonzero;stroke:none"
       transform="matrix(0.13333333,0,0,-0.13333333,0,110.34667)" />
    <path
       id="path57"
       d="m 776.172,395.344 c -5.367,-5.367 -5.367,-14.074 0,-19.442 5.367,-5.367 14.07,-5.367 19.441,0 5.367,5.368 5.367,14.075 0,19.442 -5.371,5.367 -14.074,5.367 -19.441,0"
       style="fill:#ffffff;fill-opacity:1;fill-rule:nonzero;stroke:none"
       transform="matrix(0.13333333,0,0,-0.13333333,0,110.34667)" />
    <path
       id="path58"
       d="m 747.25,366.418 c -5.371,-5.367 -5.371,-14.07 -0.004,-19.441 5.371,-5.368 14.074,-5.368 19.442,0 5.367,5.371 5.367,14.074 0,19.441 -5.368,5.367 -14.071,5.367 -19.438,0"
       style="fill:#ffffff;fill-opacity:1;fill-rule:nonzero;stroke:none"
       transform="matrix(0.13333333,0,0,-0.13333333,0,110.34667)" />
    <path
       id="path59"
       d="m 718.324,337.492 c -5.371,-5.367 -5.367,-14.07 0,-19.437 5.367,-5.371 14.071,-5.371 19.442,0 5.367,5.367 5.367,14.07 0,19.437 -5.371,5.367 -14.075,5.367 -19.442,0"
       style="fill:#ffffff;fill-opacity:1;fill-rule:nonzero;stroke:none"
       transform="matrix(0.13333333,0,0,-0.13333333,0,110.34667)" />
    <path
       id="path60"
       d="m 689.398,308.566 c -5.371,-5.363 -5.371,-14.07 0,-19.437 5.368,-5.367 14.071,-5.367 19.438,0 5.371,5.367 5.371,14.074 0,19.437 -5.367,5.372 -14.07,5.372 -19.438,0"
       style="fill:#ffffff;fill-opacity:1;fill-rule:nonzero;stroke:none"
       transform="matrix(0.13333333,0,0,-0.13333333,0,110.34667)" />
    <path
       id="path61"
       d="m 660.473,279.645 c -5.368,-5.368 -5.368,-14.071 0,-19.438 5.371,-5.371 14.074,-5.371 19.441,0 5.367,5.367 5.367,14.07 0,19.438 -5.367,5.367 -14.07,5.367 -19.441,0"
       style="fill:#ffffff;fill-opacity:1;fill-rule:nonzero;stroke:none"
       transform="matrix(0.13333333,0,0,-0.13333333,0,110.34667)" />
    <path
       id="path62"
       d="m 631.547,250.719 c -5.367,-5.367 -5.367,-14.071 0,-19.438 5.371,-5.371 14.074,-5.371 19.441,-0.004 5.367,5.371 5.367,14.075 0,19.442 -5.367,5.371 -14.07,5.371 -19.441,0"
       style="fill:#ffffff;fill-opacity:1;fill-rule:nonzero;stroke:none"
       transform="matrix(0.13333333,0,0,-0.13333333,0,110.34667)" />
    <path
       id="path63"
       d="m 602.625,221.797 c -5.371,-5.371 -5.371,-14.074 0,-19.442 5.367,-5.367 14.07,-5.367 19.438,0 5.371,5.368 5.371,14.071 0,19.442 -5.368,5.367 -14.071,5.367 -19.438,0"
       style="fill:#ffffff;fill-opacity:1;fill-rule:nonzero;stroke:none"
       transform="matrix(0.13333333,0,0,-0.13333333,0,110.34667)" />
    <path
       id="path64"
       d="m 229.961,536.645 c -5.367,-5.372 -5.367,-14.075 0,-19.442 5.367,-5.367 14.07,-5.367 19.437,0 5.372,5.367 5.372,14.07 0,19.442 -5.367,5.367 -14.07,5.367 -19.437,0"
       style="fill:#000000;fill-opacity:1;fill-rule:nonzero;stroke:none"
       transform="matrix(0.13333333,0,0,-0.13333333,0,110.34667)" />
    <path
       id="path65"
       d="m 201.703,564.902 c -5.367,-5.371 -5.367,-14.074 0,-19.445 5.367,-5.367 14.07,-5.367 19.442,0 5.367,5.371 5.367,14.074 0,19.445 -5.372,5.368 -14.075,5.368 -19.442,0"
       style="fill:#000000;fill-opacity:1;fill-rule:nonzero;stroke:none"
       transform="matrix(0.13333333,0,0,-0.13333333,0,110.34667)" />
    <path
       id="path66"
       d="m 173.445,593.152 c -5.367,-5.363 -5.367,-14.066 0,-19.437 5.371,-5.367 14.075,-5.367 19.442,0 5.367,5.371 5.367,14.074 0,19.437 -5.367,5.371 -14.071,5.371 -19.442,0"
       style="fill:#000000;fill-opacity:1;fill-rule:nonzero;stroke:none"
       transform="matrix(0.13333333,0,0,-0.13333333,0,110.34667)" />
    <path
       id="path67"
       d="m 573.715,192.887 c -5.367,-5.367 -5.367,-14.071 0,-19.442 5.367,-5.367 14.074,-5.367 19.441,0 5.367,5.371 5.367,14.075 0,19.442 -5.367,5.367 -14.074,5.367 -19.441,0"
       style="fill:#ffffff;fill-opacity:1;fill-rule:nonzero;stroke:none"
       transform="matrix(0.13333333,0,0,-0.13333333,0,110.34667)" />
    <path
       id="path68"
       d="m 201.051,507.734 c -5.367,-5.367 -5.367,-14.07 0,-19.441 5.371,-5.367 14.074,-5.367 19.441,0 5.367,5.371 5.367,14.074 0,19.441 -5.367,5.368 -14.07,5.368 -19.441,0"
       style="fill:#000000;fill-opacity:1;fill-rule:nonzero;stroke:none"
       transform="matrix(0.13333333,0,0,-0.13333333,0,110.34667)" />
    <path
       id="path69"
       d="m 172.797,535.992 c -5.371,-5.367 -5.371,-14.07 0,-19.441 5.367,-5.367 14.07,-5.367 19.437,0 5.371,5.371 5.371,14.074 0,19.441 -5.367,5.367 -14.07,5.367 -19.437,0"
       style="fill:#000000;fill-opacity:1;fill-rule:nonzero;stroke:none"
       transform="matrix(0.13333333,0,0,-0.13333333,0,110.34667)" />
    <path
       id="path70"
       d="m 144.539,564.25 c -5.367,-5.371 -5.367,-14.074 0,-19.441 5.367,-5.371 14.07,-5.371 19.438,0 5.371,5.367 5.371,14.07 0,19.441 -5.368,5.367 -14.071,5.367 -19.438,0"
       style="fill:#000000;fill-opacity:1;fill-rule:nonzero;stroke:none"
       transform="matrix(0.13333333,0,0,-0.13333333,0,110.34667)" />
    <path
       id="path71"
       d="m 172.145,478.828 c -5.368,-5.371 -5.368,-14.074 0,-19.441 5.367,-5.367 14.074,-5.367 19.441,0 5.367,5.367 5.367,14.07 0,19.441 -5.367,5.367 -14.074,5.367 -19.441,0"
       style="fill:#000000;fill-opacity:1;fill-rule:nonzero;stroke:none"
       transform="matrix(0.13333333,0,0,-0.13333333,0,110.34667)" />
    <path
       id="path72"
       d="m 143.887,507.082 c -5.367,-5.367 -5.367,-14.07 0,-19.437 5.371,-5.372 14.074,-5.372 19.441,0 5.367,5.367 5.367,14.07 0,19.437 -5.367,5.371 -14.07,5.371 -19.441,0"
       style="fill:#000000;fill-opacity:1;fill-rule:nonzero;stroke:none"
       transform="matrix(0.13333333,0,0,-0.13333333,0,110.34667)" />
    <path
       id="path73"
       d="m 115.633,535.34 c -5.367,-5.367 -5.367,-14.07 0,-19.442 5.367,-5.367 14.07,-5.367 19.437,0 5.368,5.372 5.368,14.075 0,19.442 -5.367,5.367 -14.07,5.367 -19.437,0"
       style="fill:#000000;fill-opacity:1;fill-rule:nonzero;stroke:none"
       transform="matrix(0.13333333,0,0,-0.13333333,0,110.34667)" />
    <path
       id="path74"
       d="m 143.238,449.922 c -5.371,-5.371 -5.371,-14.074 0,-19.442 5.367,-5.371 14.071,-5.371 19.438,0 5.371,5.368 5.371,14.071 0,19.442 -5.367,5.363 -14.071,5.363 -19.438,0"
       style="fill:#000000;fill-opacity:1;fill-rule:nonzero;stroke:none"
       transform="matrix(0.13333333,0,0,-0.13333333,0,110.34667)" />
    <path
       id="path75"
       d="m 114.98,478.176 c -5.367,-5.367 -5.367,-14.074 0,-19.438 5.368,-5.371 14.071,-5.371 19.438,0 5.371,5.364 5.371,14.071 0,19.438 -5.367,5.367 -14.07,5.367 -19.438,0"
       style="fill:#000000;fill-opacity:1;fill-rule:nonzero;stroke:none"
       transform="matrix(0.13333333,0,0,-0.13333333,0,110.34667)" />
    <path
       id="path76"
       d="m 86.7227,506.434 c -5.3672,-5.371 -5.3672,-14.075 0,-19.442 5.3711,-5.367 14.0743,-5.371 19.4413,0 5.367,5.367 5.367,14.071 0,19.442 -5.367,5.367 -14.0702,5.367 -19.4413,0"
       style="fill:#000000;fill-opacity:1;fill-rule:nonzero;stroke:none"
       transform="matrix(0.13333333,0,0,-0.13333333,0,110.34667)" />
    <path
       id="path77"
       d="m 429.16,106.18 c -5.367,-5.367 -5.367,-14.0706 0,-19.4378 5.367,-5.3711 14.07,-5.3711 19.442,0 5.367,5.3672 5.367,14.0708 0,19.4378 -5.372,5.371 -14.075,5.371 -19.442,0"
       style="fill:#000000;fill-opacity:1;fill-rule:nonzero;stroke:none"
       transform="matrix(0.13333333,0,0,-0.13333333,0,110.34667)" />
    <path
       id="path78"
       d="m 400.234,135.105 c -5.367,-5.367 -5.367,-14.07 0,-19.441 5.368,-5.367 14.075,-5.367 19.442,0 5.367,5.371 5.367,14.074 0,19.441 -5.367,5.368 -14.074,5.368 -19.442,0"
       style="fill:#000000;fill-opacity:1;fill-rule:nonzero;stroke:none"
       transform="matrix(0.13333333,0,0,-0.13333333,0,110.34667)" />
    <path
       id="path79"
       d="m 371.309,164.031 c -5.368,-5.367 -5.368,-14.074 0,-19.441 5.367,-5.367 14.074,-5.367 19.441,0 5.367,5.367 5.367,14.074 0,19.441 -5.367,5.367 -14.074,5.367 -19.441,0"
       style="fill:#000000;fill-opacity:1;fill-rule:nonzero;stroke:none"
       transform="matrix(0.13333333,0,0,-0.13333333,0,110.34667)" />
    <path
       id="path80"
       d="m 342.387,192.957 c -5.371,-5.371 -5.371,-14.074 0,-19.441 5.367,-5.368 14.07,-5.368 19.437,0 5.371,5.367 5.371,14.07 0,19.441 -5.367,5.363 -14.07,5.363 -19.437,0"
       style="fill:#000000;fill-opacity:1;fill-rule:nonzero;stroke:none"
       transform="matrix(0.13333333,0,0,-0.13333333,0,110.34667)" />
    <path
       id="path81"
       d="m 313.461,221.879 c -5.371,-5.367 -5.371,-14.07 0,-19.438 5.367,-5.371 14.07,-5.371 19.437,0 5.372,5.368 5.372,14.071 0,19.438 -5.367,5.367 -14.07,5.367 -19.437,0"
       style="fill:#000000;fill-opacity:1;fill-rule:nonzero;stroke:none"
       transform="matrix(0.13333333,0,0,-0.13333333,0,110.34667)" />
    <path
       id="path82"
       d="m 284.535,250.805 c -5.367,-5.371 -5.367,-14.071 0,-19.442 5.367,-5.367 14.07,-5.367 19.442,0 5.367,5.371 5.367,14.071 0,19.442 -5.372,5.367 -14.075,5.367 -19.442,0"
       style="fill:#000000;fill-opacity:1;fill-rule:nonzero;stroke:none"
       transform="matrix(0.13333333,0,0,-0.13333333,0,110.34667)" />
    <path
       id="path83"
       d="m 255.609,279.727 c -5.367,-5.368 -5.367,-14.071 0,-19.438 5.371,-5.367 14.075,-5.367 19.442,0 5.367,5.367 5.367,14.07 0,19.438 -5.367,5.371 -14.071,5.371 -19.442,0"
       style="fill:#000000;fill-opacity:1;fill-rule:nonzero;stroke:none"
       transform="matrix(0.13333333,0,0,-0.13333333,0,110.34667)" />
    <path
       id="path84"
       d="m 227.355,307.988 c -5.367,-5.371 -5.367,-14.074 0,-19.445 5.368,-5.367 14.071,-5.367 19.442,0.004 5.367,5.367 5.367,14.07 0,19.441 -5.371,5.367 -14.074,5.367 -19.442,0"
       style="fill:#000000;fill-opacity:1;fill-rule:nonzero;stroke:none"
       transform="matrix(0.13333333,0,0,-0.13333333,0,110.34667)" />
    <path
       id="path85"
       d="m 199.098,336.242 c -5.368,-5.371 -5.368,-14.074 0,-19.441 5.367,-5.367 14.07,-5.367 19.441,0 5.367,5.367 5.367,14.07 0,19.441 -5.371,5.367 -14.074,5.367 -19.441,0"
       style="fill:#000000;fill-opacity:1;fill-rule:nonzero;stroke:none"
       transform="matrix(0.13333333,0,0,-0.13333333,0,110.34667)" />
    <path
       id="path86"
       d="m 170.844,364.5 c -5.371,-5.371 -5.371,-14.074 0,-19.441 5.367,-5.368 14.07,-5.368 19.437,0 5.367,5.367 5.367,14.07 0,19.441 -5.367,5.367 -14.07,5.367 -19.437,0"
       style="fill:#000000;fill-opacity:1;fill-rule:nonzero;stroke:none"
       transform="matrix(0.13333333,0,0,-0.13333333,0,110.34667)" />
    <path
       id="path87"
       d="m 142.586,392.754 c -5.367,-5.367 -5.367,-14.07 0,-19.441 5.367,-5.368 14.07,-5.368 19.437,0 5.372,5.371 5.372,14.074 0,19.441 -5.367,5.371 -14.07,5.371 -19.437,0"
       style="fill:#000000;fill-opacity:1;fill-rule:nonzero;stroke:none"
       transform="matrix(0.13333333,0,0,-0.13333333,0,110.34667)" />
    <path
       id="path88"
       d="m 114.328,421.012 c -5.367,-5.367 -5.367,-14.074 0,-19.442 5.367,-5.367 14.07,-5.367 19.442,0 5.367,5.368 5.367,14.075 0,19.442 -5.372,5.367 -14.075,5.367 -19.442,0"
       style="fill:#000000;fill-opacity:1;fill-rule:nonzero;stroke:none"
       transform="matrix(0.13333333,0,0,-0.13333333,0,110.34667)" />
    <path
       id="path89"
       d="m 86.0742,449.266 c -5.3711,-5.368 -5.3711,-14.067 0,-19.438 5.3672,-5.367 14.0708,-5.367 19.4378,0 5.367,5.371 5.367,14.074 0,19.438 -5.367,5.371 -14.0706,5.371 -19.4378,0"
       style="fill:#000000;fill-opacity:1;fill-rule:nonzero;stroke:none"
       transform="matrix(0.13333333,0,0,-0.13333333,0,110.34667)" />
    <path
       id="path90"
       d="m 57.8164,477.523 c -5.3672,-5.367 -5.3672,-14.07 0,-19.441 5.3672,-5.367 14.0703,-5.367 19.4375,0 5.3711,5.371 5.3711,14.074 0,19.441 -5.3672,5.368 -14.0703,5.368 -19.4375,0"
       style="fill:#000000;fill-opacity:1;fill-rule:nonzero;stroke:none"
       transform="matrix(0.13333333,0,0,-0.13333333,0,110.34667)" />
    <path
       id="path91"
       d="m 458.086,77.2539 c -5.371,-5.3672 -5.371,-14.0703 0,-19.4375 5.367,-5.3711 14.07,-5.3711 19.437,0 5.372,5.3672 5.372,14.0703 0,19.4375 -5.367,5.3711 -14.07,5.3711 -19.437,0"
       style="fill:#000000;fill-opacity:1;fill-rule:nonzero;stroke:none"
       transform="matrix(0.13333333,0,0,-0.13333333,0,110.34667)" />
    <path
       id="path92"
       d="m 400.25,77.2734 c -5.367,-5.3711 -5.367,-14.0742 0,-19.4414 5.371,-5.3672 14.074,-5.3672 19.441,0 5.368,5.3672 5.368,14.0703 0,19.4414 -5.367,5.3672 -14.07,5.3672 -19.441,0"
       style="fill:#000000;fill-opacity:1;fill-rule:nonzero;stroke:none"
       transform="matrix(0.13333333,0,0,-0.13333333,0,110.34667)" />
    <path
       id="path93"
       d="m 371.328,106.199 c -5.371,-5.371 -5.371,-14.074 0,-19.4412 5.367,-5.3711 14.07,-5.3711 19.442,0 5.367,5.3672 5.367,14.0702 0,19.4412 -5.372,5.367 -14.075,5.367 -19.442,0"
       style="fill:#000000;fill-opacity:1;fill-rule:nonzero;stroke:none"
       transform="matrix(0.13333333,0,0,-0.13333333,0,110.34667)" />
    <path
       id="path94"
       d="m 342.402,135.121 c -5.367,-5.367 -5.367,-14.07 0,-19.437 5.368,-5.371 14.071,-5.371 19.442,0 5.367,5.367 5.367,14.07 0,19.437 -5.371,5.371 -14.074,5.371 -19.442,0"
       style="fill:#000000;fill-opacity:1;fill-rule:nonzero;stroke:none"
       transform="matrix(0.13333333,0,0,-0.13333333,0,110.34667)" />
    <path
       id="path95"
       d="m 313.477,164.047 c -5.368,-5.371 -5.368,-14.074 0,-19.438 5.371,-5.371 14.074,-5.371 19.441,0 5.367,5.364 5.367,14.067 0,19.438 -5.367,5.367 -14.07,5.367 -19.441,0"
       style="fill:#000000;fill-opacity:1;fill-rule:nonzero;stroke:none"
       transform="matrix(0.13333333,0,0,-0.13333333,0,110.34667)" />
    <path
       id="path96"
       d="m 284.551,192.973 c -5.367,-5.371 -5.367,-14.075 0,-19.442 5.371,-5.367 14.074,-5.367 19.441,0 5.367,5.367 5.367,14.071 0,19.442 -5.367,5.367 -14.07,5.367 -19.441,0"
       style="fill:#000000;fill-opacity:1;fill-rule:nonzero;stroke:none"
       transform="matrix(0.13333333,0,0,-0.13333333,0,110.34667)" />
    <path
       id="path97"
       d="m 255.625,221.895 c -5.363,-5.368 -5.363,-14.071 0,-19.438 5.371,-5.371 14.074,-5.371 19.445,0 5.368,5.367 5.368,14.07 0,19.438 -5.371,5.371 -14.074,5.371 -19.445,0"
       style="fill:#000000;fill-opacity:1;fill-rule:nonzero;stroke:none"
       transform="matrix(0.13333333,0,0,-0.13333333,0,110.34667)" />
    <path
       id="path98"
       d="m 226.703,250.82 c -5.367,-5.367 -5.367,-14.07 0,-19.441 5.367,-5.367 14.07,-5.367 19.442,0 5.367,5.371 5.367,14.074 0,19.441 -5.372,5.371 -14.075,5.371 -19.442,0"
       style="fill:#000000;fill-opacity:1;fill-rule:nonzero;stroke:none"
       transform="matrix(0.13333333,0,0,-0.13333333,0,110.34667)" />
    <path
       id="path99"
       d="m 198.445,279.078 c -5.367,-5.367 -5.367,-14.074 0,-19.441 5.371,-5.367 14.075,-5.367 19.442,0 5.367,5.367 5.367,14.074 0,19.441 -5.367,5.367 -14.071,5.367 -19.442,0"
       style="fill:#000000;fill-opacity:1;fill-rule:nonzero;stroke:none"
       transform="matrix(0.13333333,0,0,-0.13333333,0,110.34667)" />
    <path
       id="path100"
       d="m 170.191,307.336 c -5.371,-5.371 -5.371,-14.074 0,-19.441 5.368,-5.372 14.071,-5.372 19.438,0 5.367,5.367 5.367,14.07 0,19.441 -5.367,5.367 -14.07,5.367 -19.438,0"
       style="fill:#000000;fill-opacity:1;fill-rule:nonzero;stroke:none"
       transform="matrix(0.13333333,0,0,-0.13333333,0,110.34667)" />
    <path
       id="path101"
       d="m 141.934,335.59 c -5.368,-5.367 -5.368,-14.074 0,-19.442 5.367,-5.367 14.07,-5.367 19.441,0 5.367,5.368 5.367,14.075 0,19.442 -5.371,5.371 -14.074,5.371 -19.441,0"
       style="fill:#000000;fill-opacity:1;fill-rule:nonzero;stroke:none"
       transform="matrix(0.13333333,0,0,-0.13333333,0,110.34667)" />
    <path
       id="path102"
       d="m 113.68,363.848 c -5.371,-5.371 -5.371,-14.075 0,-19.442 5.367,-5.367 14.07,-5.367 19.437,0 5.367,5.367 5.367,14.074 0,19.442 -5.367,5.367 -14.07,5.367 -19.437,0"
       style="fill:#000000;fill-opacity:1;fill-rule:nonzero;stroke:none"
       transform="matrix(0.13333333,0,0,-0.13333333,0,110.34667)" />
    <path
       id="path103"
       d="m 85.4219,392.102 c -5.3711,-5.368 -5.3711,-14.071 0,-19.438 5.3672,-5.367 14.0703,-5.367 19.4371,0 5.368,5.367 5.368,14.07 0,19.438 -5.3668,5.371 -14.0699,5.371 -19.4371,0"
       style="fill:#000000;fill-opacity:1;fill-rule:nonzero;stroke:none"
       transform="matrix(0.13333333,0,0,-0.13333333,0,110.34667)" />
    <path
       id="path104"
       d="m 57.1641,420.359 c -5.3672,-5.367 -5.3672,-14.07 0,-19.441 5.3672,-5.367 14.0703,-5.367 19.4414,0 5.3672,5.371 5.3672,14.074 0,19.441 -5.3711,5.368 -14.0742,5.368 -19.4414,0"
       style="fill:#000000;fill-opacity:1;fill-rule:nonzero;stroke:none"
       transform="matrix(0.13333333,0,0,-0.13333333,0,110.34667)" />
    <path
       id="path105"
       d="m 28.9063,448.617 c -5.3672,-5.367 -5.3672,-14.074 0,-19.441 5.371,-5.367 14.0742,-5.367 19.4414,0 5.3671,5.367 5.3671,14.074 0,19.441 -5.3672,5.367 -14.0704,5.367 -19.4414,0"
       style="fill:#000000;fill-opacity:1;fill-rule:nonzero;stroke:none"
       transform="matrix(0.13333333,0,0,-0.13333333,0,110.34667)" />
    <path
       id="path106"
       d="m 429.176,48.3477 c -5.367,-5.3672 -5.367,-14.0704 0,-19.4414 5.371,-5.3672 14.074,-5.3672 19.441,0 5.367,5.371 5.367,14.0742 0,19.4414 -5.367,5.3711 -14.07,5.3711 -19.441,0"
       style="fill:#000000;fill-opacity:1;fill-rule:nonzero;stroke:none"
       transform="matrix(0.13333333,0,0,-0.13333333,0,110.34667)" />
    <path
       id="path107"
       d="m 371.344,48.3672 c -5.367,-5.3711 -5.367,-14.0742 0,-19.4453 5.367,-5.3633 14.074,-5.3633 19.441,0 5.367,5.3711 5.367,14.0742 0,19.4453 -5.367,5.3672 -14.074,5.3672 -19.441,0"
       style="fill:#000000;fill-opacity:1;fill-rule:nonzero;stroke:none"
       transform="matrix(0.13333333,0,0,-0.13333333,0,110.34667)" />
    <path
       id="path108"
       d="m 342.418,77.2891 c -5.367,-5.3672 -5.367,-14.0703 0,-19.4414 5.367,-5.3672 14.07,-5.3672 19.441,0 5.371,5.3711 5.371,14.0742 0,19.4414 -5.371,5.3672 -14.074,5.3672 -19.441,0"
       style="fill:#000000;fill-opacity:1;fill-rule:nonzero;stroke:none"
       transform="matrix(0.13333333,0,0,-0.13333333,0,110.34667)" />
    <path
       id="path109"
       d="m 313.492,106.215 c -5.367,-5.367 -5.367,-14.0705 0,-19.4416 5.371,-5.3671 14.074,-5.3671 19.442,0 5.371,5.3711 5.371,14.0746 0,19.4416 -5.368,5.367 -14.071,5.367 -19.442,0"
       style="fill:#000000;fill-opacity:1;fill-rule:nonzero;stroke:none"
       transform="matrix(0.13333333,0,0,-0.13333333,0,110.34667)" />
    <path
       id="path110"
       d="m 284.57,135.137 c -5.367,-5.367 -5.367,-14.071 0,-19.438 5.368,-5.367 14.071,-5.367 19.438,0 5.371,5.367 5.371,14.071 0,19.438 -5.367,5.371 -14.07,5.371 -19.438,0"
       style="fill:#000000;fill-opacity:1;fill-rule:nonzero;stroke:none"
       transform="matrix(0.13333333,0,0,-0.13333333,0,110.34667)" />
    <path
       id="path111"
       d="m 255.645,164.063 c -5.368,-5.368 -5.368,-14.071 0,-19.438 5.371,-5.371 14.074,-5.371 19.441,0 5.367,5.367 5.367,14.07 0,19.438 -5.367,5.367 -14.07,5.367 -19.441,0"
       style="fill:#000000;fill-opacity:1;fill-rule:nonzero;stroke:none"
       transform="matrix(0.13333333,0,0,-0.13333333,0,110.34667)" />
    <path
       id="path112"
       d="m 226.723,192.988 c -5.371,-5.367 -5.371,-14.07 0,-19.441 5.363,-5.367 14.07,-5.367 19.437,0 5.367,5.371 5.367,14.074 0,19.441 -5.367,5.367 -14.074,5.367 -19.437,0"
       style="fill:#000000;fill-opacity:1;fill-rule:nonzero;stroke:none"
       transform="matrix(0.13333333,0,0,-0.13333333,0,110.34667)" />
    <path
       id="path113"
       d="m 197.797,221.914 c -5.367,-5.367 -5.367,-14.074 0,-19.441 5.367,-5.368 14.07,-5.368 19.437,0 5.371,5.367 5.371,14.074 0,19.441 -5.367,5.367 -14.07,5.367 -19.437,0"
       style="fill:#000000;fill-opacity:1;fill-rule:nonzero;stroke:none"
       transform="matrix(0.13333333,0,0,-0.13333333,0,110.34667)" />
    <path
       id="path114"
       d="m 169.539,250.168 c -5.367,-5.367 -5.367,-14.07 0,-19.438 5.367,-5.371 14.07,-5.371 19.441,0 5.368,5.368 5.368,14.071 0,19.438 -5.371,5.371 -14.074,5.371 -19.441,0"
       style="fill:#000000;fill-opacity:1;fill-rule:nonzero;stroke:none"
       transform="matrix(0.13333333,0,0,-0.13333333,0,110.34667)" />
    <path
       id="path115"
       d="m 141.281,278.426 c -5.367,-5.367 -5.367,-14.071 0,-19.438 5.371,-5.371 14.074,-5.371 19.442,0 5.367,5.367 5.371,14.071 0,19.438 -5.368,5.367 -14.071,5.367 -19.442,0"
       style="fill:#000000;fill-opacity:1;fill-rule:nonzero;stroke:none"
       transform="matrix(0.13333333,0,0,-0.13333333,0,110.34667)" />
    <path
       id="path116"
       d="m 113.027,306.684 c -5.367,-5.371 -5.371,-14.075 0,-19.442 5.368,-5.367 14.071,-5.367 19.438,0 5.367,5.367 5.367,14.071 0,19.442 -5.367,5.367 -14.07,5.367 -19.438,0"
       style="fill:#000000;fill-opacity:1;fill-rule:nonzero;stroke:none"
       transform="matrix(0.13333333,0,0,-0.13333333,0,110.34667)" />
    <path
       id="path117"
       d="m 84.7695,334.938 c -5.3711,-5.368 -5.3711,-14.071 0,-19.438 5.3672,-5.371 14.0703,-5.371 19.4415,0 5.367,5.367 5.367,14.07 0,19.438 -5.3712,5.371 -14.0743,5.371 -19.4415,0"
       style="fill:#000000;fill-opacity:1;fill-rule:nonzero;stroke:none"
       transform="matrix(0.13333333,0,0,-0.13333333,0,110.34667)" />
    <path
       id="path118"
       d="m 56.5117,363.195 c -5.3672,-5.367 -5.3672,-14.07 0,-19.437 5.3711,-5.371 14.0742,-5.371 19.4414,0 5.3672,5.367 5.3672,14.07 0,19.437 -5.3672,5.368 -14.0703,5.368 -19.4414,0"
       style="fill:#000000;fill-opacity:1;fill-rule:nonzero;stroke:none"
       transform="matrix(0.13333333,0,0,-0.13333333,0,110.34667)" />
    <path
       id="path119"
       d="m 28.2578,391.453 c -5.3672,-5.367 -5.3672,-14.074 -0.0039,-19.441 5.3711,-5.371 14.0742,-5.371 19.4414,0 5.3711,5.367 5.3711,14.074 0,19.441 -5.3672,5.367 -14.0703,5.367 -19.4375,0"
       style="fill:#000000;fill-opacity:1;fill-rule:nonzero;stroke:none"
       transform="matrix(0.13333333,0,0,-0.13333333,0,110.34667)" />
    <path
       id="path120"
       d="m 0,419.707 c -5.36719,-5.367 -5.36719,-14.07 0,-19.437 5.36719,-5.368 14.0703,-5.368 19.4414,0 5.3672,5.367 5.3672,14.07 0,19.437 -5.3711,5.371 -14.07421,5.371 -19.4414,0"
       style="fill:#000000;fill-opacity:1;fill-rule:nonzero;stroke:none"
       transform="matrix(0.13333333,0,0,-0.13333333,0,110.34667)" />
    <path
       id="path121"
       d="m 400.27,19.4414 c -5.368,-5.3672 -5.368,-14.07421 0,-19.4414 5.367,-5.36719 14.07,-5.36719 19.441,0 5.363,5.36719 5.363,14.0742 -0.004,19.4414 -5.367,5.3672 -14.07,5.3672 -19.437,0"
       style="fill:#000000;fill-opacity:1;fill-rule:nonzero;stroke:none"
       transform="matrix(0.13333333,0,0,-0.13333333,0,110.34667)" />
    <path
       id="path122"
       d="m 1089.4,341.512 c 43.41,-15.672 104.01,-27.731 173.65,-27.731 53.36,0 104,7.235 104,40.996 0,78.371 -298.45,28.938 -298.45,182.067 0,101.285 148.32,129.015 274.94,129.015 60.59,0 120.28,-6.027 162.79,-15.675 l -10.86,-86.813 c -43.41,13.262 -92.24,19.293 -140.18,19.293 -42.5,0 -113.04,-2.414 -113.04,-39.187 0,-68.125 298.45,-22.309 298.45,-174.231 0,-109.121 -137.47,-138.66 -277.65,-138.66 -58.79,0 -132.04,6.027 -188.12,18.086 l 14.47,92.84"
       style="fill:#000000;fill-opacity:1;fill-rule:nonzero;stroke:none"
       transform="matrix(0.13333333,0,0,-0.13333333,0,110.34667)" />
    <path
       id="path123"
       d="m 1590.34,658.625 h 264.98 l 133.86,-279.734 h 1.8 l 140.18,279.734 H 2386.2 V 237.816 h -164.6 l 2.71,323.145 h -1.8 L 2061.52,237.816 h -154.64 l -153.75,323.145 h -1.81 l 3.62,-323.145 h -164.6 v 420.809"
       style="fill:#000000;fill-opacity:1;fill-rule:nonzero;stroke:none"
       transform="matrix(0.13333333,0,0,-0.13333333,0,110.34667)" />
    <path
       id="path124"
       d="m 2585.25,575.43 h -155.56 v 83.195 h 479.33 V 575.43 H 2753.46 V 237.816 H 2585.25 V 575.43"
       style="fill:#000000;fill-opacity:1;fill-rule:nonzero;stroke:none"
       transform="matrix(0.13333333,0,0,-0.13333333,0,110.34667)" />
    <path
       id="path125"
       d="m 3064.53,658.625 h 206.2 l 243.28,-420.809 h -184.49 l -47.03,89.829 h -236.95 l -49.74,-89.829 h -170.93 z m 103.1,-86.812 h -1.81 l -81.39,-164.586 h 158.27 l -75.07,164.586"
       style="fill:#000000;fill-opacity:1;fill-rule:nonzero;stroke:none"
       transform="matrix(0.13333333,0,0,-0.13333333,0,110.34667)" />
    <path
       id="path126"
       d="m 1083.52,64.4727 c 6.03,-3.8243 13.09,-6.0274 22.65,-6.0274 12.65,0 23.1,6.4727 23.1,21.0313 0,20.1523 -47.07,22.6564 -47.07,49.5744 0,16.472 14.41,26.769 32.5,26.769 5,0 13.1,-0.734 20.16,-3.382 l -1.62,-9.266 c -4.56,2.5 -11.77,3.824 -18.69,3.824 -10.59,0 -22.21,-4.414 -22.21,-17.652 0,-20.594 47.07,-20.742 47.07,-50.7502 0,-20.7383 -17.79,-28.9766 -33.68,-28.9766 -10,0 -17.8,2.0586 -23.24,4.4141 l 1.03,10.4414"
       style="fill:#000000;fill-opacity:1;fill-rule:nonzero;stroke:none"
       transform="matrix(0.13333333,0,0,-0.13333333,0,110.34667)" />
    <path
       id="path127"
       d="m 1215.18,69.0352 c 0,-5.7383 0,-11.6211 0.59,-17.6524 h -8.98 v 13.3867 h -0.29 c -3.09,-6.7656 -8.68,-15.1523 -24.27,-15.1523 -18.54,0 -25.6,12.3555 -25.6,28.832 v 47.9528 h 9.27 V 80.8008 c 0,-14.1211 5,-23.2383 17.8,-23.2383 16.91,0 22.21,14.8555 22.21,27.3594 v 41.4801 h 9.27 V 69.0352"
       style="fill:#000000;fill-opacity:1;fill-rule:nonzero;stroke:none"
       transform="matrix(0.13333333,0,0,-0.13333333,0,110.34667)" />
    <path
       id="path128"
       d="m 1238.41,109.633 c 0,8.238 0,11.328 -0.59,16.769 h 9.27 v -14.418 h 0.29 c 3.39,8.387 9.71,16.184 19.27,16.184 2.21,0 4.86,-0.441 6.48,-0.883 v -9.707 c -1.92,0.586 -4.42,0.879 -6.77,0.879 -14.71,0 -18.68,-16.473 -18.68,-30.0039 V 51.3828 h -9.27 v 58.2502"
       style="fill:#000000;fill-opacity:1;fill-rule:nonzero;stroke:none"
       transform="matrix(0.13333333,0,0,-0.13333333,0,110.34667)" />
    <path
       id="path129"
       d="m 1296.63,118.457 h -15.15 v 7.945 h 15.15 v 5.442 c 0,15.738 0.59,31.625 19.86,31.625 2.94,0 6.91,-0.442 8.68,-1.469 l -0.59,-8.09 c -1.91,1.028 -4.71,1.617 -7.36,1.617 -12.65,0 -11.32,-13.679 -11.32,-22.652 v -6.473 h 16.91 v -7.945 H 1305.9 V 51.3828 h -9.27 v 67.0742"
       style="fill:#000000;fill-opacity:1;fill-rule:nonzero;stroke:none"
       transform="matrix(0.13333333,0,0,-0.13333333,0,110.34667)" />
    <path
       id="path130"
       d="m 1381.62,63.4453 h -0.3 c -4.11,-8.9726 -14.55,-13.8281 -23.82,-13.8281 -21.33,0 -24.71,14.418 -24.71,21.1836 0,25.1523 26.76,26.3281 46.18,26.3281 h 1.77 v 3.8241 c 0,12.797 -4.56,19.27 -17.06,19.27 -7.8,0 -15.16,-1.766 -22.07,-6.176 v 8.973 c 5.74,2.793 15.44,5.148 22.07,5.148 18.53,0 26.32,-8.387 26.32,-27.949 V 67.1211 c 0,-6.0313 0,-10.5898 0.74,-15.7383 h -9.12 z m -0.88,25.7422 h -2.65 c -16.03,0 -35.16,-1.6211 -35.16,-18.0937 0,-9.8555 7.07,-13.5313 15.6,-13.5313 21.77,0 22.21,18.9727 22.21,27.0625 v 4.5625"
       style="fill:#000000;fill-opacity:1;fill-rule:nonzero;stroke:none"
       transform="matrix(0.13333333,0,0,-0.13333333,0,110.34667)" />
    <path
       id="path131"
       d="m 1459.44,116.398 c -5,2.207 -11.03,3.825 -16.03,3.825 -18.09,0 -28.25,-13.09 -28.25,-31.3324 0,-17.0625 10.3,-31.3281 27.22,-31.3281 5.88,0 11.32,1.3242 16.91,3.3828 l 0.89,-8.6797 c -6.33,-2.207 -12.21,-2.6484 -19.27,-2.6484 -24.13,0 -35.89,18.3867 -35.89,39.2734 0,23.0934 14.85,39.2774 37.07,39.2774 8.96,0 15.44,-2.063 18.09,-2.941 l -0.74,-8.829"
       style="fill:#000000;fill-opacity:1;fill-rule:nonzero;stroke:none"
       transform="matrix(0.13333333,0,0,-0.13333333,0,110.34667)" />
    <path
       id="path132"
       d="m 1526.94,53.7383 c -6.47,-2.6485 -14.85,-4.1211 -21.77,-4.1211 -24.86,0 -34.12,16.7695 -34.12,39.2734 0,22.9494 12.65,39.2774 31.62,39.2774 21.18,0 29.86,-17.066 29.86,-37.2149 v -4.707 h -51.33 c 0,-15.8867 8.53,-28.6836 24.71,-28.6836 6.76,0 16.62,2.793 21.03,5.5898 z m -4.56,40.4492 c 0,13.0895 -5.29,26.0355 -19.12,26.0355 -13.68,0 -22.06,-13.68 -22.06,-26.0355 h 41.18"
       style="fill:#000000;fill-opacity:1;fill-rule:nonzero;stroke:none"
       transform="matrix(0.13333333,0,0,-0.13333333,0,110.34667)" />
    <path
       id="path133"
       d="m 1592.09,154.055 h 15.74 l 37.51,-90.3167 37.66,90.3167 h 14.56 V 51.3828 h -10.15 v 92.5232 h -0.3 l -37.36,-92.5232 h -8.68 l -38.53,92.5232 h -0.3 V 51.3828 h -10.15 V 154.055"
       style="fill:#000000;fill-opacity:1;fill-rule:nonzero;stroke:none"
       transform="matrix(0.13333333,0,0,-0.13333333,0,110.34667)" />
    <path
       id="path134"
       d="m 1751.1,128.168 c 24.27,0 35.01,-18.828 35.01,-39.2774 0,-20.4453 -10.74,-39.2734 -35.01,-39.2734 -24.27,0 -35.01,18.8281 -35.01,39.2734 0,20.4494 10.74,39.2774 35.01,39.2774 z m 0,-70.6055 c 16.18,0 24.86,13.9727 24.86,31.3281 0,17.3594 -8.68,31.3324 -24.86,31.3324 -16.18,0 -24.86,-13.973 -24.86,-31.3324 0,-17.3554 8.68,-31.3281 24.86,-31.3281"
       style="fill:#000000;fill-opacity:1;fill-rule:nonzero;stroke:none"
       transform="matrix(0.13333333,0,0,-0.13333333,0,110.34667)" />
    <path
       id="path135"
       d="m 1862.15,69.0352 c 0,-5.7383 0,-11.6211 0.59,-17.6524 h -8.97 v 13.3867 h -0.3 c -3.09,-6.7656 -8.68,-15.1523 -24.27,-15.1523 -18.54,0 -25.59,12.3555 -25.59,28.832 v 47.9528 h 9.26 V 80.8008 c 0,-14.1211 5.01,-23.2383 17.8,-23.2383 16.92,0 22.21,14.8555 22.21,27.3594 v 41.4801 h 9.27 V 69.0352"
       style="fill:#000000;fill-opacity:1;fill-rule:nonzero;stroke:none"
       transform="matrix(0.13333333,0,0,-0.13333333,0,110.34667)" />
    <path
       id="path136"
       d="m 1885.38,108.75 c 0,5.738 0,11.621 -0.58,17.652 h 8.97 v -13.386 h 0.29 c 3.09,6.765 8.68,15.152 24.28,15.152 18.53,0 25.59,-12.359 25.59,-28.8321 V 51.3828 h -9.27 v 45.5977 c 0,14.1215 -5,23.2425 -17.8,23.2425 -16.91,0 -22.21,-14.856 -22.21,-27.3597 V 51.3828 h -9.27 V 108.75"
       style="fill:#000000;fill-opacity:1;fill-rule:nonzero;stroke:none"
       transform="matrix(0.13333333,0,0,-0.13333333,0,110.34667)" />
    <path
       id="path137"
       d="m 1999.52,118.457 h -17.06 V 69.918 c 0,-6.7657 2.5,-12.3555 10,-12.3555 3.53,0 5.89,0.7344 8.54,1.7656 l 0.58,-7.6523 c -2.2,-0.8789 -6.76,-2.0586 -11.32,-2.0586 -16.48,0 -17.06,11.3281 -17.06,25.0078 v 43.832 h -14.72 v 7.945 h 14.72 v 18.094 l 9.26,3.234 v -21.328 h 17.06 v -7.945"
       style="fill:#000000;fill-opacity:1;fill-rule:nonzero;stroke:none"
       transform="matrix(0.13333333,0,0,-0.13333333,0,110.34667)" />
    <path
       id="path138"
       d="m 2077.14,145.23 h -30.3 v 8.825 h 70.75 v -8.825 h -30.3 V 51.3828 h -10.15 V 145.23"
       style="fill:#000000;fill-opacity:1;fill-rule:nonzero;stroke:none"
       transform="matrix(0.13333333,0,0,-0.13333333,0,110.34667)" />
    <path
       id="path139"
       d="m 2164.54,53.7383 c -6.47,-2.6485 -14.86,-4.1211 -21.77,-4.1211 -24.86,0 -34.13,16.7695 -34.13,39.2734 0,22.9494 12.65,39.2774 31.63,39.2774 21.18,0 29.86,-17.066 29.86,-37.2149 v -4.707 h -51.34 c 0,-15.8867 8.53,-28.6836 24.72,-28.6836 6.76,0 16.62,2.793 21.03,5.5898 z m -4.56,40.4492 c 0,13.0895 -5.29,26.0355 -19.12,26.0355 -13.68,0 -22.07,-13.68 -22.07,-26.0355 h 41.19"
       style="fill:#000000;fill-opacity:1;fill-rule:nonzero;stroke:none"
       transform="matrix(0.13333333,0,0,-0.13333333,0,110.34667)" />
    <path
       id="path140"
       d="m 2236.63,116.398 c -5.01,2.207 -11.04,3.825 -16.04,3.825 -18.09,0 -28.24,-13.09 -28.24,-31.3324 0,-17.0625 10.29,-31.3281 27.21,-31.3281 5.89,0 11.33,1.3242 16.92,3.3828 l 0.88,-8.6797 c -6.32,-2.207 -12.21,-2.6484 -19.27,-2.6484 -24.12,0 -35.89,18.3867 -35.89,39.2734 0,23.0934 14.85,39.2774 37.07,39.2774 8.97,0 15.44,-2.063 18.09,-2.941 l -0.73,-8.829"
       style="fill:#000000;fill-opacity:1;fill-rule:nonzero;stroke:none"
       transform="matrix(0.13333333,0,0,-0.13333333,0,110.34667)" />
    <path
       id="path141"
       d="m 2254.55,161.703 h 9.27 V 113.75 h 0.29 c 3.98,8.238 12.36,14.418 23.39,14.418 20.15,0 25.6,-13.387 25.6,-31.9219 V 51.3828 h -9.27 v 44.7188 c 0,12.9414 -2.5,24.1214 -17.8,24.1214 -16.47,0 -22.21,-15.59 -22.21,-28.6839 V 51.3828 h -9.27 V 161.703"
       style="fill:#000000;fill-opacity:1;fill-rule:nonzero;stroke:none"
       transform="matrix(0.13333333,0,0,-0.13333333,0,110.34667)" />
    <path
       id="path142"
       d="m 2333.39,108.75 c 0,5.738 0,11.621 -0.59,17.652 h 8.97 v -13.386 h 0.3 c 3.09,6.765 8.68,15.152 24.27,15.152 18.53,0 25.59,-12.359 25.59,-28.8321 V 51.3828 h -9.27 v 45.5977 c 0,14.1215 -5,23.2425 -17.79,23.2425 -16.92,0 -22.21,-14.856 -22.21,-27.3597 V 51.3828 h -9.27 V 108.75"
       style="fill:#000000;fill-opacity:1;fill-rule:nonzero;stroke:none"
       transform="matrix(0.13333333,0,0,-0.13333333,0,110.34667)" />
    <path
       id="path143"
       d="m 2443.7,128.168 c 24.27,0 35.01,-18.828 35.01,-39.2774 0,-20.4453 -10.74,-39.2734 -35.01,-39.2734 -24.27,0 -35,18.8281 -35,39.2734 0,20.4494 10.73,39.2774 35,39.2774 z m 0,-70.6055 c 16.18,0 24.86,13.9727 24.86,31.3281 0,17.3594 -8.68,31.3324 -24.86,31.3324 -16.18,0 -24.86,-13.973 -24.86,-31.3324 0,-17.3554 8.68,-31.3281 24.86,-31.3281"
       style="fill:#000000;fill-opacity:1;fill-rule:nonzero;stroke:none"
       transform="matrix(0.13333333,0,0,-0.13333333,0,110.34667)" />
    <path
       id="path144"
       d="m 2496.21,161.703 h 9.27 V 51.3828 h -9.27 V 161.703"
       style="fill:#000000;fill-opacity:1;fill-rule:nonzero;stroke:none"
       transform="matrix(0.13333333,0,0,-0.13333333,0,110.34667)" />
    <path
       id="path145"
       d="m 2558.13,128.168 c 24.27,0 35.01,-18.828 35.01,-39.2774 0,-20.4453 -10.74,-39.2734 -35.01,-39.2734 -24.27,0 -35.01,18.8281 -35.01,39.2734 0,20.4494 10.74,39.2774 35.01,39.2774 z m 0,-70.6055 c 16.18,0 24.86,13.9727 24.86,31.3281 0,17.3594 -8.68,31.3324 -24.86,31.3324 -16.18,0 -24.86,-13.973 -24.86,-31.3324 0,-17.3554 8.68,-31.3281 24.86,-31.3281"
       style="fill:#000000;fill-opacity:1;fill-rule:nonzero;stroke:none"
       transform="matrix(0.13333333,0,0,-0.13333333,0,110.34667)" />
    <path
       id="path146"
       d="m 2670.06,57.5625 c 0,-20.8906 -9.41,-37.9492 -35.15,-37.9492 -9.86,0 -18.83,2.793 -22.66,3.9687 l 0.74,9.2657 c 5.74,-2.9414 13.97,-5.293 22.06,-5.293 23.83,0 25.89,17.3555 25.89,38.5391 h -0.29 c -5.01,-10.8868 -13.24,-14.711 -22.8,-14.711 -23.98,0 -31.63,20.8867 -31.63,37.5078 0,22.8004 8.83,39.2774 30.89,39.2774 10,0 16.48,-1.324 23.39,-10.297 h 0.29 v 8.531 h 9.27 z M 2638,59.3281 c 16.76,0 22.79,15.8828 22.79,29.5625 0,18.0934 -5.29,31.3324 -22.21,31.3324 -17.65,0 -22.21,-16.766 -22.21,-31.3324 0,-14.707 5.88,-29.5625 21.63,-29.5625"
       style="fill:#000000;fill-opacity:1;fill-rule:nonzero;stroke:none"
       transform="matrix(0.13333333,0,0,-0.13333333,0,110.34667)" />
    <path
       id="path147"
       d="m 2718.38,40.2031 c -3.54,-10.2968 -8.83,-20.5898 -19.27,-20.5898 -3.39,0 -6.92,0.4375 -10,1.1758 l 0.87,7.9414 c 1.77,-0.5899 3.54,-1.1758 6.92,-1.1758 7.94,0 10.59,6.6172 13.53,16.3281 l 1.91,6.6172 -26.62,75.902 h 10.15 l 21.04,-62.6637 -0.15,0.1484 h 0.29 l 21.63,62.5153 h 9.7 l -30,-86.1989"
       style="fill:#000000;fill-opacity:1;fill-rule:nonzero;stroke:none"
       transform="matrix(0.13333333,0,0,-0.13333333,0,110.34667)" />
    <path
       id="path148"
       d="m 2830.94,154.055 h 11.47 l 40.75,-102.6722 h -10.59 l -11.03,27.5078 h -51.78 l -11.03,-27.5078 h -9.86 z m 5,-9.707 -22.36,-56.6332 h 44.57 z"
       style="fill:#000000;fill-opacity:1;fill-rule:nonzero;stroke:none"
       transform="matrix(0.13333333,0,0,-0.13333333,0,110.34667)" />
    <path
       id="path149"
       d="m 2890.96,62.2695 c 5.59,-2.7968 12.36,-4.707 19.56,-4.707 8.83,0 16.63,4.8516 16.63,13.3867 0,17.7969 -36.04,15 -36.04,36.7698 0,14.859 12.06,20.449 24.42,20.449 3.97,0 11.91,-0.883 18.53,-3.383 l -0.88,-8.094 c -4.86,2.207 -11.48,3.532 -16.63,3.532 -9.55,0 -16.17,-2.942 -16.17,-12.504 0,-13.9729 36.92,-12.2073 36.92,-36.7698 0,-15.8906 -14.86,-21.332 -26.19,-21.332 -7.2,0 -14.41,0.8828 -21.03,3.5312 l 0.88,9.1211"
       style="fill:#000000;fill-opacity:1;fill-rule:nonzero;stroke:none"
       transform="matrix(0.13333333,0,0,-0.13333333,0,110.34667)" />
    <path
       id="path150"
       d="m 2948.18,62.2695 c 5.59,-2.7968 12.35,-4.707 19.56,-4.707 8.82,0 16.62,4.8516 16.62,13.3867 0,17.7969 -36.04,15 -36.04,36.7698 0,14.859 12.06,20.449 24.42,20.449 3.97,0 11.91,-0.883 18.53,-3.383 l -0.88,-8.094 c -4.85,2.207 -11.47,3.532 -16.62,3.532 -9.56,0 -16.18,-2.942 -16.18,-12.504 0,-13.9729 36.92,-12.2073 36.92,-36.7698 0,-15.8906 -14.86,-21.332 -26.19,-21.332 -7.2,0 -14.41,0.8828 -21.03,3.5312 l 0.89,9.1211"
       style="fill:#000000;fill-opacity:1;fill-rule:nonzero;stroke:none"
       transform="matrix(0.13333333,0,0,-0.13333333,0,110.34667)" />
    <path
       id="path151"
       d="m 3040.39,128.168 c 24.28,0 35.01,-18.828 35.01,-39.2774 0,-20.4453 -10.73,-39.2734 -35.01,-39.2734 -24.26,0 -35,18.8281 -35,39.2734 0,20.4494 10.74,39.2774 35,39.2774 z m 0,-70.6055 c 16.18,0 24.86,13.9727 24.86,31.3281 0,17.3594 -8.68,31.3324 -24.86,31.3324 -16.18,0 -24.85,-13.973 -24.85,-31.3324 0,-17.3554 8.67,-31.3281 24.85,-31.3281"
       style="fill:#000000;fill-opacity:1;fill-rule:nonzero;stroke:none"
       transform="matrix(0.13333333,0,0,-0.13333333,0,110.34667)" />
    <path
       id="path152"
       d="m 3141.74,116.398 c -5.01,2.207 -11.04,3.825 -16.04,3.825 -18.09,0 -28.24,-13.09 -28.24,-31.3324 0,-17.0625 10.3,-31.3281 27.22,-31.3281 5.88,0 11.32,1.3242 16.91,3.3828 l 0.88,-8.6797 c -6.32,-2.207 -12.2,-2.6484 -19.27,-2.6484 -24.12,0 -35.89,18.3867 -35.89,39.2734 0,23.0934 14.86,39.2774 37.07,39.2774 8.97,0 15.44,-2.063 18.09,-2.941 l -0.73,-8.829"
       style="fill:#000000;fill-opacity:1;fill-rule:nonzero;stroke:none"
       transform="matrix(0.13333333,0,0,-0.13333333,0,110.34667)" />
    <path
       id="path153"
       d="m 3158.2,126.402 h 9.26 V 51.3828 h -9.26 z m 9.26,20.004 h -9.26 v 12.356 h 9.26 v -12.356"
       style="fill:#000000;fill-opacity:1;fill-rule:nonzero;stroke:none"
       transform="matrix(0.13333333,0,0,-0.13333333,0,110.34667)" />
    <path
       id="path154"
       d="m 3233.94,63.4453 h -0.29 c -4.12,-8.9726 -14.56,-13.8281 -23.83,-13.8281 -21.33,0 -24.71,14.418 -24.71,21.1836 0,25.1523 26.77,26.3281 46.18,26.3281 h 1.77 v 3.8241 c 0,12.797 -4.56,19.27 -17.06,19.27 -7.8,0 -15.16,-1.766 -22.07,-6.176 v 8.973 c 5.74,2.793 15.45,5.148 22.07,5.148 18.53,0 26.32,-8.387 26.32,-27.949 V 67.1211 c 0,-6.0313 0,-10.5898 0.74,-15.7383 h -9.12 z m -0.88,25.7422 h -2.65 c -16.03,0 -35.16,-1.6211 -35.16,-18.0937 0,-9.8555 7.07,-13.5313 15.6,-13.5313 21.77,0 22.21,18.9727 22.21,27.0625 v 4.5625"
       style="fill:#000000;fill-opacity:1;fill-rule:nonzero;stroke:none"
       transform="matrix(0.13333333,0,0,-0.13333333,0,110.34667)" />
    <path
       id="path155"
       d="M 3296.76,118.457 H 3279.7 V 69.918 c 0,-6.7657 2.5,-12.3555 10,-12.3555 3.53,0 5.88,0.7344 8.53,1.7656 l 0.59,-7.6523 c -2.21,-0.8789 -6.77,-2.0586 -11.33,-2.0586 -16.47,0 -17.06,11.3281 -17.06,25.0078 v 43.832 h -14.71 v 7.945 h 14.71 v 18.094 l 9.27,3.234 v -21.328 h 17.06 v -7.945"
       style="fill:#000000;fill-opacity:1;fill-rule:nonzero;stroke:none"
       transform="matrix(0.13333333,0,0,-0.13333333,0,110.34667)" />
    <path
       id="path156"
       d="m 3313.35,126.402 h 9.27 V 51.3828 h -9.27 z m 9.27,20.004 h -9.27 v 12.356 h 9.27 v -12.356"
       style="fill:#000000;fill-opacity:1;fill-rule:nonzero;stroke:none"
       transform="matrix(0.13333333,0,0,-0.13333333,0,110.34667)" />
    <path
       id="path157"
       d="m 3375.27,128.168 c 24.27,0 35.01,-18.828 35.01,-39.2774 0,-20.4453 -10.74,-39.2734 -35.01,-39.2734 -24.27,0 -35.01,18.8281 -35.01,39.2734 0,20.4494 10.74,39.2774 35.01,39.2774 z m 0,-70.6055 c 16.18,0 24.86,13.9727 24.86,31.3281 0,17.3594 -8.68,31.3324 -24.86,31.3324 -16.18,0 -24.86,-13.973 -24.86,-31.3324 0,-17.3554 8.68,-31.3281 24.86,-31.3281"
       style="fill:#000000;fill-opacity:1;fill-rule:nonzero;stroke:none"
       transform="matrix(0.13333333,0,0,-0.13333333,0,110.34667)" />
    <path
       id="path158"
       d="m 3427.77,108.75 c 0,5.738 0,11.621 -0.58,17.652 h 8.97 v -13.386 h 0.29 c 3.09,6.765 8.68,15.152 24.27,15.152 18.54,0 25.6,-12.359 25.6,-28.8321 V 51.3828 h -9.27 v 45.5977 c 0,14.1215 -5,23.2425 -17.8,23.2425 -16.91,0 -22.21,-14.856 -22.21,-27.3597 V 51.3828 h -9.27 V 108.75"
       style="fill:#000000;fill-opacity:1;fill-rule:nonzero;stroke:none"
       transform="matrix(0.13333333,0,0,-0.13333333,0,110.34667)" />
  </g>
</svg>
