<?xml version="1.0" encoding="UTF-8" standalone="no"?>
<!-- Created with Inkscape (http://www.inkscape.org/) -->

<svg
   version="1.1"
   id="svg1"
   width="1066.6667"
   height="1066.6667"
   viewBox="0 0 1066.6667 1066.6667"
   sodipodi:docname="STIM.eps"
   xmlns:inkscape="http://www.inkscape.org/namespaces/inkscape"
   xmlns:sodipodi="http://sodipodi.sourceforge.net/DTD/sodipodi-0.dtd"
   xmlns="http://www.w3.org/2000/svg"
   xmlns:svg="http://www.w3.org/2000/svg">
  <defs
     id="defs1" />
  <sodipodi:namedview
     id="namedview1"
     pagecolor="#ffffff"
     bordercolor="#000000"
     borderopacity="0.25"
     inkscape:showpageshadow="2"
     inkscape:pageopacity="0.0"
     inkscape:pagecheckerboard="0"
     inkscape:deskcolor="#d1d1d1">
    <inkscape:page
       x="0"
       y="0"
       inkscape:label="1"
       id="page1"
       width="1066.6667"
       height="1066.6667"
       margin="0"
       bleed="0" />
  </sodipodi:namedview>
  <g
     id="g1"
     inkscape:groupmode="layer"
     inkscape:label="1">
    <g
       id="group-R5">
      <path
         id="path2"
         d="m 4531.56,4870.06 c 0,-101.45 -82.24,-183.69 -183.69,-183.69 -101.45,0 -183.69,82.24 -183.69,183.69 0,101.45 82.24,183.69 183.69,183.69 101.45,0 183.69,-82.24 183.69,-183.69"
         style="fill:#30af41;fill-opacity:1;fill-rule:nonzero;stroke:none"
         transform="matrix(0.13333333,0,0,-0.13333333,0,1066.6667)" />
      <path
         id="path3"
         d="m 2937.88,4376.2 h 421.77 v -664.89 h 278.05 v 664.89 h 321.03 l 179.99,233.72 H 3117.87 L 2937.88,4376.2"
         style="fill:#100f0d;fill-opacity:1;fill-rule:nonzero;stroke:none"
         transform="matrix(0.13333333,0,0,-0.13333333,0,1066.6667)" />
      <path
         id="path4"
         d="m 4216.62,3711.31 h 278.05 v 898.61 h -278.05 v -898.61"
         style="fill:#100f0d;fill-opacity:1;fill-rule:nonzero;stroke:none"
         transform="matrix(0.13333333,0,0,-0.13333333,0,1066.6667)" />
      <path
         id="path5"
         d="m 1933.61,3753.77 c -37.67,0 -68.21,30.53 -68.21,68.2 0,37.66 30.54,68.2 68.21,68.2 37.66,0 68.19,-30.54 68.19,-68.2 0,-37.67 -30.53,-68.2 -68.19,-68.2 z m 962.37,436.39 c -57.32,40.74 -141.04,61.12 -251.19,61.12 h -488.93 c -32.22,0 -56.2,4.7 -71.85,14.11 -15.69,9.4 -23.51,25.72 -23.51,49.02 0,23.28 7.82,39.39 23.51,48.35 15.65,8.95 39.63,13.44 71.85,13.44 h 623.26 l 178.65,233.72 h -780.41 c -68.06,0 -126.49,-6.72 -175.29,-20.15 -48.81,-13.43 -88.65,-32.24 -119.55,-56.42 -30.89,-24.17 -53.72,-53.51 -68.5,-87.97 -14.78,-34.49 -22.16,-72.77 -22.16,-114.85 0,-38.52 6.71,-73.67 20.15,-105.44 13.43,-31.8 34.02,-58.89 61.79,-81.27 27.74,-22.4 62.66,-39.85 104.76,-52.39 42.09,-12.55 92.22,-18.8 150.44,-18.8 h 488.93 c 33.12,0 57.3,-4.93 72.54,-14.77 15.21,-9.87 22.84,-26.43 22.84,-49.7 0,-23.3 -7.63,-40.09 -22.84,-50.37 -15.24,-10.31 -39.42,-15.45 -72.54,-15.45 h -512.59 c -37.96,54.05 -100.66,89.47 -171.73,89.47 -115.9,0 -209.85,-93.95 -209.85,-209.84 0,-115.9 93.95,-209.85 209.85,-209.85 75.22,0 141.01,39.71 178.05,99.19 h 484.78 c 68.05,0 126.47,6.71 175.29,20.15 48.8,13.42 88.86,32.67 120.22,57.75 31.33,25.06 54.17,55.96 68.51,92.69 14.31,36.71 21.48,77.9 21.48,123.57 0,82.38 -28.66,143.94 -85.96,184.69"
         style="fill:#100f0d;fill-opacity:1;fill-rule:nonzero;stroke:none"
         transform="matrix(0.13333333,0,0,-0.13333333,0,1066.6667)" />
      <path
         id="path6"
         d="m 6066.39,3753.77 c -37.66,0 -68.2,30.53 -68.2,68.2 0,37.66 30.54,68.2 68.2,68.2 37.67,0 68.2,-30.54 68.2,-68.2 0,-37.67 -30.53,-68.2 -68.2,-68.2 z m 81.39,261.66 -139.59,485.69 c -12.56,42.08 -32.91,73.2 -61.12,93.35 -28.21,20.15 -59.77,30.22 -94.7,30.22 -36.73,0 -67.39,-8.73 -92.01,-26.19 -24.63,-17.46 -44.99,-40.53 -61.11,-69.17 l -143.73,-255.22 c -19.7,-34.92 -36.94,-65.37 -51.71,-91.34 -14.78,-25.97 -27.77,-49.49 -38.95,-70.51 -11.21,-21.05 -21.06,-39.86 -29.55,-56.42 -8.52,-16.58 -16.36,-32.91 -23.51,-49.03 -8.06,16.12 -16.35,32.68 -24.85,49.7 -8.52,17 -18.36,35.81 -29.55,56.41 -11.21,20.6 -24.18,44.1 -38.96,70.53 -14.77,26.4 -32.02,57.09 -51.71,92.01 l -143.72,253.87 c -16.12,29.55 -36.5,52.82 -61.12,69.84 -24.64,17 -54.86,25.52 -90.66,25.52 -34.93,0 -66.72,-10.07 -95.37,-30.22 -28.68,-20.15 -49.26,-51.27 -61.79,-93.35 l -232.38,-789.81 h 272.67 l 84.63,312.96 c 13.43,51.05 25.06,96.04 34.92,135 9.85,38.95 18.35,76.33 25.53,112.16 7.15,-15.25 14.54,-30.89 22.16,-47.02 7.6,-16.11 16.56,-33.81 26.86,-53.05 10.29,-19.27 21.7,-40.97 34.25,-65.15 12.53,-24.18 26.87,-51.5 42.99,-81.94 l 120.89,-227 c 11.62,-22.39 23.5,-40.08 35.59,-53.05 12.09,-13 24.38,-23.07 36.94,-30.23 12.53,-7.16 25.96,-11.86 40.3,-14.1 14.31,-2.23 29.98,-3.36 47.01,-3.36 17,0 32.67,1.13 47.01,3.36 14.31,2.24 27.75,6.94 40.29,14.1 12.54,7.16 24.85,17.23 36.95,30.23 12.09,12.97 23.94,30.66 35.59,53.05 l 120.89,225.66 c 30.43,58.2 55.07,106.33 73.87,144.39 18.81,38.05 35.81,72.75 51.05,104.11 7.15,-36.73 15.65,-74.35 25.52,-112.83 9.84,-38.52 21.93,-83.28 36.26,-134.33 l 21.8,-80.6 c -24.53,-34.35 -39.11,-76.28 -39.11,-121.7 0,-115.9 93.95,-209.85 209.84,-209.85 115.9,0 209.85,93.95 209.85,209.85 0,87.03 -52.99,161.67 -128.46,193.46"
         style="fill:#100f0d;fill-opacity:1;fill-rule:nonzero;stroke:none"
         transform="matrix(0.13333333,0,0,-0.13333333,0,1066.6667)" />
      <path
         id="path7"
         d="m 1738.42,3535.25 h 140.15 v -36.37 h -99.54 v -37.69 h 87.6 v -36.37 h -87.6 v -39.02 h 100.87 v -36.36 h -141.48 v 185.81"
         style="fill:#100f0d;fill-opacity:1;fill-rule:nonzero;stroke:none"
         transform="matrix(0.13333333,0,0,-0.13333333,0,1066.6667)" />
      <path
         id="path8"
         d="m 1920.44,3535.25 h 40.88 V 3386.6 h 92.63 v -37.16 h -133.51 v 185.81"
         style="fill:#100f0d;fill-opacity:1;fill-rule:nonzero;stroke:none"
         transform="matrix(0.13333333,0,0,-0.13333333,0,1066.6667)" />
      <path
         id="path9"
         d="m 2083.46,3535.25 h 140.15 v -36.37 h -99.54 v -37.69 h 87.6 v -36.37 h -87.6 v -39.02 h 100.87 v -36.36 h -141.48 v 185.81"
         style="fill:#100f0d;fill-opacity:1;fill-rule:nonzero;stroke:none"
         transform="matrix(0.13333333,0,0,-0.13333333,0,1066.6667)" />
      <path
         id="path10"
         d="m 2253.15,3441.81 v 0.54 c 0,52.82 39.81,96.08 96.89,96.08 35.03,0 56,-11.68 73.25,-28.66 l -26,-30 c -14.35,13.01 -28.94,20.97 -47.52,20.97 -31.32,0 -53.89,-26.01 -53.89,-57.86 v -0.53 c 0,-31.86 22.04,-58.4 53.89,-58.4 21.23,0 34.24,8.49 48.83,21.76 l 26.02,-26.27 c -19.12,-20.44 -40.35,-33.19 -76.18,-33.19 -54.68,0 -95.29,42.21 -95.29,95.56"
         style="fill:#100f0d;fill-opacity:1;fill-rule:nonzero;stroke:none"
         transform="matrix(0.13333333,0,0,-0.13333333,0,1066.6667)" />
      <path
         id="path11"
         d="m 2504.39,3497.56 h -56.54 v 37.69 h 153.95 v -37.69 h -56.53 v -148.12 h -40.88 v 148.12"
         style="fill:#100f0d;fill-opacity:1;fill-rule:nonzero;stroke:none"
         transform="matrix(0.13333333,0,0,-0.13333333,0,1066.6667)" />
      <path
         id="path12"
         d="m 2713.84,3445 c 19.91,0 31.32,10.61 31.32,26.28 v 0.53 c 0,17.52 -12.21,26.55 -32.11,26.55 h -40.61 V 3445 Z m -82.28,90.25 h 84.94 c 23.62,0 41.94,-6.64 54.15,-18.85 10.35,-10.35 15.92,-24.95 15.92,-42.47 v -0.53 c 0,-30 -16.19,-48.84 -39.82,-57.6 l 45.39,-66.36 h -47.78 l -39.8,59.46 h -0.54 -31.58 v -59.46 h -40.88 v 185.81"
         style="fill:#100f0d;fill-opacity:1;fill-rule:nonzero;stroke:none"
         transform="matrix(0.13333333,0,0,-0.13333333,0,1066.6667)" />
      <path
         id="path13"
         d="m 2969.23,3441.81 v 0.54 c 0,31.85 -23.36,58.39 -56.28,58.39 -32.92,0 -55.74,-26.01 -55.74,-57.86 v -0.53 c 0,-31.86 23.36,-58.4 56.27,-58.4 32.92,0 55.75,26.01 55.75,57.86 z m -154.75,0 v 0.54 c 0,52.82 41.67,96.08 99,96.08 57.34,0 98.49,-42.73 98.49,-95.55 v -0.53 c 0,-52.83 -41.68,-96.1 -99.02,-96.1 -57.33,0 -98.47,42.74 -98.47,95.56"
         style="fill:#100f0d;fill-opacity:1;fill-rule:nonzero;stroke:none"
         transform="matrix(0.13333333,0,0,-0.13333333,0,1066.6667)" />
      <path
         id="path14"
         d="m 3049.75,3535.25 h 37.69 l 87.06,-114.41 v 114.41 h 40.35 v -185.81 h -34.78 l -89.99,118.12 v -118.12 h -40.33 v 185.81"
         style="fill:#100f0d;fill-opacity:1;fill-rule:nonzero;stroke:none"
         transform="matrix(0.13333333,0,0,-0.13333333,0,1066.6667)" />
      <path
         id="path15"
         d="m 3263.33,3535.25 h 40.87 v -185.81 h -40.87 v 185.81"
         style="fill:#100f0d;fill-opacity:1;fill-rule:nonzero;stroke:none"
         transform="matrix(0.13333333,0,0,-0.13333333,0,1066.6667)" />
      <path
         id="path16"
         d="m 3342.77,3441.81 v 0.54 c 0,52.82 39.81,96.08 96.89,96.08 35.03,0 56.01,-11.68 73.25,-28.66 l -26,-30 c -14.34,13.01 -28.94,20.97 -47.52,20.97 -31.32,0 -53.88,-26.01 -53.88,-57.86 v -0.53 c 0,-31.86 22.03,-58.4 53.88,-58.4 21.23,0 34.24,8.49 48.84,21.76 l 26.01,-26.27 c -19.11,-20.44 -40.35,-33.19 -76.18,-33.19 -54.68,0 -95.29,42.21 -95.29,95.56"
         style="fill:#100f0d;fill-opacity:1;fill-rule:nonzero;stroke:none"
         transform="matrix(0.13333333,0,0,-0.13333333,0,1066.6667)" />
      <path
         id="path17"
         d="m 3538.4,3376.52 24.15,28.93 c 16.73,-13.8 34.25,-22.56 55.48,-22.56 16.73,0 26.82,6.63 26.82,17.51 v 0.53 c 0,10.36 -6.37,15.67 -37.44,23.63 -37.42,9.56 -61.58,19.91 -61.58,56.81 v 0.53 c 0,33.71 27.08,56 65.04,56 27.08,0 50.17,-8.49 69.01,-23.62 l -21.23,-30.79 c -16.46,11.41 -32.65,18.32 -48.32,18.32 -15.66,0 -23.89,-7.18 -23.89,-16.2 v -0.53 c 0,-12.21 7.97,-16.19 40.09,-24.42 37.69,-9.82 58.93,-23.36 58.93,-55.74 v -0.54 c 0,-36.89 -28.14,-57.6 -68.22,-57.6 -28.14,0 -56.55,9.83 -78.84,29.74"
         style="fill:#100f0d;fill-opacity:1;fill-rule:nonzero;stroke:none"
         transform="matrix(0.13333333,0,0,-0.13333333,0,1066.6667)" />
      <path
         id="path18"
         d="m 3803.29,3535.25 h 44.07 l 48.84,-78.57 48.83,78.57 h 44.07 v -185.81 h -40.61 v 121.3 l -52.29,-79.36 h -1.06 l -51.77,78.57 v -120.51 h -40.08 v 185.81"
         style="fill:#100f0d;fill-opacity:1;fill-rule:nonzero;stroke:none"
         transform="matrix(0.13333333,0,0,-0.13333333,0,1066.6667)" />
      <path
         id="path19"
         d="m 4140.31,3427.22 -24.69,60.25 -24.69,-60.25 z m -43.01,109.36 h 37.69 l 79.64,-187.14 h -42.73 l -16.99,41.68 h -78.57 l -16.99,-41.68 h -41.68 l 79.63,187.14"
         style="fill:#100f0d;fill-opacity:1;fill-rule:nonzero;stroke:none"
         transform="matrix(0.13333333,0,0,-0.13333333,0,1066.6667)" />
      <path
         id="path20"
         d="m 4243.2,3535.25 h 37.69 l 87.06,-114.41 v 114.41 h 40.35 v -185.81 h -34.78 l -89.98,118.12 v -118.12 h -40.34 v 185.81"
         style="fill:#100f0d;fill-opacity:1;fill-rule:nonzero;stroke:none"
         transform="matrix(0.13333333,0,0,-0.13333333,0,1066.6667)" />
      <path
         id="path21"
         d="m 4453.83,3429.07 v 106.18 h 40.88 v -105.11 c 0,-30.26 15.13,-45.93 40.09,-45.93 24.95,0 40.08,15.13 40.08,44.6 v 106.44 h 40.88 V 3430.4 c 0,-56.27 -31.59,-83.88 -81.5,-83.88 -49.9,0 -80.43,27.87 -80.43,82.55"
         style="fill:#100f0d;fill-opacity:1;fill-rule:nonzero;stroke:none"
         transform="matrix(0.13333333,0,0,-0.13333333,0,1066.6667)" />
      <path
         id="path22"
         d="m 4661.29,3535.25 h 141.48 v -37.16 h -100.6 v -39.55 h 88.65 v -37.17 h -88.65 v -71.93 h -40.88 v 185.81"
         style="fill:#100f0d;fill-opacity:1;fill-rule:nonzero;stroke:none"
         transform="matrix(0.13333333,0,0,-0.13333333,0,1066.6667)" />
      <path
         id="path23"
         d="m 4928.17,3427.22 -24.69,60.25 -24.69,-60.25 z m -43.01,109.36 h 37.69 l 79.64,-187.14 h -42.73 l -16.99,41.68 h -78.57 l -16.99,-41.68 h -41.68 l 79.63,187.14"
         style="fill:#100f0d;fill-opacity:1;fill-rule:nonzero;stroke:none"
         transform="matrix(0.13333333,0,0,-0.13333333,0,1066.6667)" />
      <path
         id="path24"
         d="m 5012.57,3441.81 v 0.54 c 0,52.82 39.81,96.08 96.89,96.08 35.03,0 56.01,-11.68 73.25,-28.66 l -26,-30 c -14.35,13.01 -28.94,20.97 -47.52,20.97 -31.32,0 -53.88,-26.01 -53.88,-57.86 v -0.53 c 0,-31.86 22.03,-58.4 53.88,-58.4 21.23,0 34.24,8.49 48.83,21.76 l 26.02,-26.27 c -19.11,-20.44 -40.35,-33.19 -76.18,-33.19 -54.68,0 -95.29,42.21 -95.29,95.56"
         style="fill:#100f0d;fill-opacity:1;fill-rule:nonzero;stroke:none"
         transform="matrix(0.13333333,0,0,-0.13333333,0,1066.6667)" />
      <path
         id="path25"
         d="m 5263.81,3497.56 h -56.54 v 37.69 h 153.96 v -37.69 h -56.54 v -148.12 h -40.88 v 148.12"
         style="fill:#100f0d;fill-opacity:1;fill-rule:nonzero;stroke:none"
         transform="matrix(0.13333333,0,0,-0.13333333,0,1066.6667)" />
      <path
         id="path26"
         d="m 5389.53,3429.07 v 106.18 h 40.88 v -105.11 c 0,-30.26 15.13,-45.93 40.09,-45.93 24.95,0 40.08,15.13 40.08,44.6 v 106.44 h 40.88 V 3430.4 c 0,-56.27 -31.59,-83.88 -81.5,-83.88 -49.9,0 -80.43,27.87 -80.43,82.55"
         style="fill:#100f0d;fill-opacity:1;fill-rule:nonzero;stroke:none"
         transform="matrix(0.13333333,0,0,-0.13333333,0,1066.6667)" />
      <path
         id="path27"
         d="m 5679.28,3445 c 19.9,0 31.32,10.61 31.32,26.28 v 0.53 c 0,17.52 -12.22,26.55 -32.12,26.55 h -40.61 V 3445 Z m -82.29,90.25 h 84.94 c 23.62,0 41.94,-6.64 54.14,-18.85 10.36,-10.35 15.93,-24.95 15.93,-42.47 v -0.53 c 0,-30 -16.19,-48.84 -39.82,-57.6 l 45.4,-66.36 h -47.78 l -39.81,59.46 h -0.54 -31.58 v -59.46 h -40.88 v 185.81"
         style="fill:#100f0d;fill-opacity:1;fill-rule:nonzero;stroke:none"
         transform="matrix(0.13333333,0,0,-0.13333333,0,1066.6667)" />
      <path
         id="path28"
         d="m 5792.34,3535.25 h 40.88 v -185.81 h -40.88 v 185.81"
         style="fill:#100f0d;fill-opacity:1;fill-rule:nonzero;stroke:none"
         transform="matrix(0.13333333,0,0,-0.13333333,0,1066.6667)" />
      <path
         id="path29"
         d="m 5881.26,3535.25 h 37.69 l 87.06,-114.41 v 114.41 h 40.35 v -185.81 h -34.78 l -89.98,118.12 v -118.12 h -40.34 v 185.81"
         style="fill:#100f0d;fill-opacity:1;fill-rule:nonzero;stroke:none"
         transform="matrix(0.13333333,0,0,-0.13333333,0,1066.6667)" />
      <path
         id="path30"
         d="m 6084.53,3441.81 v 0.54 c 0,52.82 41.14,96.08 97.42,96.08 33.45,0 53.62,-9.02 73,-25.48 l -25.75,-31.05 c -14.34,11.94 -27.07,18.84 -48.58,18.84 -29.73,0 -53.35,-26.27 -53.35,-57.86 v -0.53 c 0,-33.98 23.36,-58.93 56.27,-58.93 14.87,0 28.14,3.71 38.49,11.15 v 26.54 h -41.15 v 35.3 h 80.7 v -80.69 c -19.11,-16.19 -45.39,-29.47 -79.37,-29.47 -57.87,0 -97.68,40.62 -97.68,95.56"
         style="fill:#100f0d;fill-opacity:1;fill-rule:nonzero;stroke:none"
         transform="matrix(0.13333333,0,0,-0.13333333,0,1066.6667)" />
    </g>
  </g>
</svg>
